G04 #@! TF.GenerationSoftware,KiCad,Pcbnew,(5.1.4)-1*
G04 #@! TF.CreationDate,2019-10-01T00:12:14+07:00*
G04 #@! TF.ProjectId,Microphone-PreAmp,4d696372-6f70-4686-9f6e-652d50726541,rev?*
G04 #@! TF.SameCoordinates,Original*
G04 #@! TF.FileFunction,Copper,L1,Top*
G04 #@! TF.FilePolarity,Positive*
%FSLAX46Y46*%
G04 Gerber Fmt 4.6, Leading zero omitted, Abs format (unit mm)*
G04 Created by KiCad (PCBNEW (5.1.4)-1) date 2019-10-01 00:12:14*
%MOMM*%
%LPD*%
G04 APERTURE LIST*
%ADD10R,1.600000X1.600000*%
%ADD11C,1.600000*%
%ADD12C,1.350000*%
%ADD13R,1.350000X1.350000*%
%ADD14C,3.810000*%
%ADD15C,2.790000*%
%ADD16C,2.540000*%
%ADD17C,1.400000*%
%ADD18O,1.400000X1.400000*%
%ADD19O,1.600000X1.600000*%
%ADD20C,2.340000*%
%ADD21C,0.800000*%
%ADD22C,0.500000*%
%ADD23C,0.250000*%
G04 APERTURE END LIST*
D10*
X93726000Y-101854000D03*
D11*
X93726000Y-99854000D03*
D10*
X93726000Y-123444000D03*
D11*
X93726000Y-121444000D03*
X93726000Y-114332000D03*
D10*
X93726000Y-116332000D03*
D11*
X93726000Y-107220000D03*
D10*
X93726000Y-109220000D03*
D11*
X93726000Y-92488000D03*
D10*
X93726000Y-94488000D03*
D12*
X90456000Y-51690000D03*
X90456000Y-53690000D03*
X90456000Y-55690000D03*
X90456000Y-57690000D03*
X90456000Y-59690000D03*
X92456000Y-51690000D03*
X92456000Y-53690000D03*
X92456000Y-55690000D03*
X92456000Y-57690000D03*
D13*
X92456000Y-59690000D03*
D14*
X72132000Y-105664000D03*
D15*
X72132000Y-100584000D03*
D16*
X72132000Y-95504000D03*
D15*
X76202000Y-100584000D03*
X68072000Y-100584000D03*
D17*
X59436000Y-89916000D03*
D18*
X64516000Y-89916000D03*
X64516000Y-84836000D03*
D17*
X59436000Y-84836000D03*
X73660000Y-84582000D03*
D18*
X73660000Y-79502000D03*
D17*
X59436000Y-79756000D03*
D18*
X64516000Y-79756000D03*
X68580000Y-79502000D03*
D17*
X68580000Y-84582000D03*
D18*
X78740000Y-79502000D03*
D17*
X78740000Y-84582000D03*
X68580000Y-89916000D03*
D18*
X73660000Y-89916000D03*
X81280000Y-89916000D03*
D17*
X76200000Y-89916000D03*
D19*
X96012000Y-76708000D03*
X88392000Y-69088000D03*
X93472000Y-76708000D03*
X90932000Y-69088000D03*
X90932000Y-76708000D03*
X93472000Y-69088000D03*
X88392000Y-76708000D03*
D10*
X96012000Y-69088000D03*
D20*
X78740000Y-68580000D03*
X73740000Y-68580000D03*
X68740000Y-68580000D03*
D21*
X80010000Y-96520000D03*
X94549990Y-89600010D03*
X97790000Y-87630000D03*
X100330000Y-66040000D03*
X97155000Y-64770000D03*
X68580000Y-76835000D03*
X86360000Y-87630000D03*
X93980000Y-85598000D03*
X98298000Y-81280000D03*
X101600000Y-77978000D03*
X81915000Y-77851000D03*
X84582000Y-72898000D03*
X85725000Y-75565000D03*
D22*
X92426000Y-123444000D02*
X93726000Y-123444000D01*
X86104000Y-117122000D02*
X92426000Y-123444000D01*
X86104000Y-114556000D02*
X86104000Y-117122000D01*
X86104000Y-114556000D02*
X72132000Y-100584000D01*
X90932000Y-69088000D02*
X91731999Y-68288001D01*
X91731999Y-68288001D02*
X95250000Y-64770000D01*
X95250000Y-64770000D02*
X97155000Y-64770000D01*
X80010000Y-96520000D02*
X82484990Y-96520000D01*
X82550000Y-96520000D02*
X89469990Y-89600010D01*
X82484990Y-96520000D02*
X82550000Y-96520000D01*
X97155000Y-64770000D02*
X97155000Y-64770000D01*
X89469990Y-89600010D02*
X94549990Y-89600010D01*
X94549990Y-89600010D02*
X94549990Y-89600010D01*
X101600000Y-83820000D02*
X97790000Y-87630000D01*
X102870000Y-82550000D02*
X101600000Y-83820000D01*
X100330000Y-66040000D02*
X100330000Y-66040000D01*
X102870000Y-68580000D02*
X102870000Y-82550000D01*
X100330000Y-66040000D02*
X102870000Y-68580000D01*
X97155000Y-64770000D02*
X97155000Y-64770000D01*
X88392000Y-76708000D02*
X68707000Y-76708000D01*
X91950000Y-116332000D02*
X76202000Y-100584000D01*
X93726000Y-116332000D02*
X91950000Y-116332000D01*
X59436000Y-89916000D02*
X59436000Y-95631000D01*
X64389000Y-100584000D02*
X68072000Y-100584000D01*
X59436000Y-95631000D02*
X64389000Y-100584000D01*
X59436000Y-88926051D02*
X59436000Y-84836000D01*
D23*
X59436000Y-89916000D02*
X59436000Y-88926051D01*
D22*
X59436000Y-83846051D02*
X59436000Y-79756000D01*
D23*
X59436000Y-84836000D02*
X59436000Y-83846051D01*
D22*
X59436000Y-78359000D02*
X59436000Y-79756000D01*
X63500000Y-74295000D02*
X59436000Y-78359000D01*
X81280000Y-74295000D02*
X63500000Y-74295000D01*
X90456000Y-57690000D02*
X88360000Y-57690000D01*
X88360000Y-57690000D02*
X85725000Y-60325000D01*
X85725000Y-60325000D02*
X85725000Y-69850000D01*
X85725000Y-69850000D02*
X84137500Y-71437500D01*
X84137500Y-71437500D02*
X81280000Y-74295000D01*
X90456000Y-57690000D02*
X92456000Y-57690000D01*
X92456000Y-57690000D02*
X92456000Y-55690000D01*
X92456000Y-55690000D02*
X90456000Y-55690000D01*
X90456000Y-55690000D02*
X90456000Y-57690000D01*
X92456000Y-55690000D02*
X92456000Y-53690000D01*
X92456000Y-53690000D02*
X92456000Y-51690000D01*
X93726000Y-107220000D02*
X93726000Y-101854000D01*
X68072000Y-100584000D02*
X70612000Y-98044000D01*
X92426000Y-101854000D02*
X93726000Y-101854000D01*
X88616000Y-98044000D02*
X92426000Y-101854000D01*
X70612000Y-98044000D02*
X88616000Y-98044000D01*
X97790000Y-109220000D02*
X93726000Y-109220000D01*
X99060000Y-107950000D02*
X97790000Y-109220000D01*
X99060000Y-97790000D02*
X99060000Y-107950000D01*
X93726000Y-94488000D02*
X95758000Y-94488000D01*
X95758000Y-94488000D02*
X99060000Y-97790000D01*
X96012000Y-94234000D02*
X96012000Y-76708000D01*
X95758000Y-94488000D02*
X96012000Y-94234000D01*
X96811999Y-75908001D02*
X96012000Y-76708000D01*
X96811999Y-74892001D02*
X96811999Y-75908001D01*
X90456000Y-50006000D02*
X91440000Y-49022000D01*
X90456000Y-51690000D02*
X90456000Y-50006000D01*
X91440000Y-49022000D02*
X96012000Y-49022000D01*
X96012000Y-49022000D02*
X98552000Y-51562000D01*
X98552000Y-51562000D02*
X98552000Y-73152000D01*
X98552000Y-73152000D02*
X96811999Y-74892001D01*
X86759999Y-87230001D02*
X92347999Y-87230001D01*
X86360000Y-87630000D02*
X86759999Y-87230001D01*
X92347999Y-87230001D02*
X93980000Y-85598000D01*
X93980000Y-85598000D02*
X93980000Y-85598000D01*
X101600000Y-77978000D02*
X101600000Y-77978000D01*
X98298000Y-81280000D02*
X101600000Y-77978000D01*
X64516000Y-79756000D02*
X64516000Y-81026000D01*
X64516000Y-81026000D02*
X66675000Y-83185000D01*
X66675000Y-83185000D02*
X66675000Y-85725000D01*
X66675000Y-85725000D02*
X67310000Y-86360000D01*
X71882000Y-86360000D02*
X73660000Y-84582000D01*
X67310000Y-86360000D02*
X71882000Y-86360000D01*
X73660000Y-84582000D02*
X78740000Y-84582000D01*
X78740000Y-84582000D02*
X81915000Y-81407000D01*
X81915000Y-81407000D02*
X81915000Y-77851000D01*
X81915000Y-77851000D02*
X81915000Y-77851000D01*
X84582000Y-72898000D02*
X85852000Y-71628000D01*
X90932000Y-71628000D02*
X93472000Y-69088000D01*
X85852000Y-71628000D02*
X90932000Y-71628000D01*
X68580000Y-79502000D02*
X73660000Y-79502000D01*
X96012000Y-70388000D02*
X96012000Y-69088000D01*
X93375000Y-73025000D02*
X96012000Y-70388000D01*
X88265000Y-73025000D02*
X93375000Y-73025000D01*
X85725000Y-75565000D02*
X88265000Y-73025000D01*
X78740000Y-68580000D02*
X73740000Y-68580000D01*
X73660000Y-89916000D02*
X76200000Y-89916000D01*
X92672001Y-77507999D02*
X93472000Y-76708000D01*
X87630000Y-82550000D02*
X92672001Y-77507999D01*
X83566000Y-82550000D02*
X87630000Y-82550000D01*
X76200000Y-89916000D02*
X83566000Y-82550000D01*
M02*
