G04 #@! TF.GenerationSoftware,KiCad,Pcbnew,(5.1.4)-1*
G04 #@! TF.CreationDate,2019-10-01T00:12:14+07:00*
G04 #@! TF.ProjectId,Microphone-PreAmp,4d696372-6f70-4686-9f6e-652d50726541,rev?*
G04 #@! TF.SameCoordinates,Original*
G04 #@! TF.FileFunction,Legend,Top*
G04 #@! TF.FilePolarity,Positive*
%FSLAX46Y46*%
G04 Gerber Fmt 4.6, Leading zero omitted, Abs format (unit mm)*
G04 Created by KiCad (PCBNEW (5.1.4)-1) date 2019-10-01 00:12:14*
%MOMM*%
%LPD*%
G04 APERTURE LIST*
%ADD10C,0.120000*%
%ADD11C,0.150000*%
G04 APERTURE END LIST*
D10*
X92546277Y-98548278D02*
G75*
G03X92546000Y-103159580I1179723J-2305722D01*
G01*
X94905723Y-98548278D02*
G75*
G02X94906000Y-103159580I-1179723J-2305722D01*
G01*
X94905723Y-98548278D02*
G75*
G03X92546000Y-98548420I-1179723J-2305722D01*
G01*
X91176000Y-100854000D02*
X96276000Y-100854000D01*
X91176000Y-100814000D02*
X92746000Y-100814000D01*
X94706000Y-100814000D02*
X96276000Y-100814000D01*
X91177000Y-100774000D02*
X92746000Y-100774000D01*
X94706000Y-100774000D02*
X96275000Y-100774000D01*
X91178000Y-100734000D02*
X92746000Y-100734000D01*
X94706000Y-100734000D02*
X96274000Y-100734000D01*
X91180000Y-100694000D02*
X92746000Y-100694000D01*
X94706000Y-100694000D02*
X96272000Y-100694000D01*
X91183000Y-100654000D02*
X92746000Y-100654000D01*
X94706000Y-100654000D02*
X96269000Y-100654000D01*
X91187000Y-100614000D02*
X92746000Y-100614000D01*
X94706000Y-100614000D02*
X96265000Y-100614000D01*
X91191000Y-100574000D02*
X92746000Y-100574000D01*
X94706000Y-100574000D02*
X96261000Y-100574000D01*
X91195000Y-100534000D02*
X92746000Y-100534000D01*
X94706000Y-100534000D02*
X96257000Y-100534000D01*
X91201000Y-100494000D02*
X92746000Y-100494000D01*
X94706000Y-100494000D02*
X96251000Y-100494000D01*
X91207000Y-100454000D02*
X92746000Y-100454000D01*
X94706000Y-100454000D02*
X96245000Y-100454000D01*
X91213000Y-100414000D02*
X92746000Y-100414000D01*
X94706000Y-100414000D02*
X96239000Y-100414000D01*
X91220000Y-100374000D02*
X92746000Y-100374000D01*
X94706000Y-100374000D02*
X96232000Y-100374000D01*
X91228000Y-100334000D02*
X92746000Y-100334000D01*
X94706000Y-100334000D02*
X96224000Y-100334000D01*
X91237000Y-100294000D02*
X92746000Y-100294000D01*
X94706000Y-100294000D02*
X96215000Y-100294000D01*
X91246000Y-100254000D02*
X92746000Y-100254000D01*
X94706000Y-100254000D02*
X96206000Y-100254000D01*
X91256000Y-100214000D02*
X92746000Y-100214000D01*
X94706000Y-100214000D02*
X96196000Y-100214000D01*
X91266000Y-100174000D02*
X92746000Y-100174000D01*
X94706000Y-100174000D02*
X96186000Y-100174000D01*
X91278000Y-100133000D02*
X92746000Y-100133000D01*
X94706000Y-100133000D02*
X96174000Y-100133000D01*
X91290000Y-100093000D02*
X92746000Y-100093000D01*
X94706000Y-100093000D02*
X96162000Y-100093000D01*
X91302000Y-100053000D02*
X92746000Y-100053000D01*
X94706000Y-100053000D02*
X96150000Y-100053000D01*
X91316000Y-100013000D02*
X92746000Y-100013000D01*
X94706000Y-100013000D02*
X96136000Y-100013000D01*
X91330000Y-99973000D02*
X92746000Y-99973000D01*
X94706000Y-99973000D02*
X96122000Y-99973000D01*
X91344000Y-99933000D02*
X92746000Y-99933000D01*
X94706000Y-99933000D02*
X96108000Y-99933000D01*
X91360000Y-99893000D02*
X92746000Y-99893000D01*
X94706000Y-99893000D02*
X96092000Y-99893000D01*
X91376000Y-99853000D02*
X92746000Y-99853000D01*
X94706000Y-99853000D02*
X96076000Y-99853000D01*
X91393000Y-99813000D02*
X92746000Y-99813000D01*
X94706000Y-99813000D02*
X96059000Y-99813000D01*
X91411000Y-99773000D02*
X92746000Y-99773000D01*
X94706000Y-99773000D02*
X96041000Y-99773000D01*
X91430000Y-99733000D02*
X92746000Y-99733000D01*
X94706000Y-99733000D02*
X96022000Y-99733000D01*
X91450000Y-99693000D02*
X92746000Y-99693000D01*
X94706000Y-99693000D02*
X96002000Y-99693000D01*
X91470000Y-99653000D02*
X92746000Y-99653000D01*
X94706000Y-99653000D02*
X95982000Y-99653000D01*
X91492000Y-99613000D02*
X92746000Y-99613000D01*
X94706000Y-99613000D02*
X95960000Y-99613000D01*
X91514000Y-99573000D02*
X92746000Y-99573000D01*
X94706000Y-99573000D02*
X95938000Y-99573000D01*
X91537000Y-99533000D02*
X92746000Y-99533000D01*
X94706000Y-99533000D02*
X95915000Y-99533000D01*
X91561000Y-99493000D02*
X92746000Y-99493000D01*
X94706000Y-99493000D02*
X95891000Y-99493000D01*
X91586000Y-99453000D02*
X92746000Y-99453000D01*
X94706000Y-99453000D02*
X95866000Y-99453000D01*
X91613000Y-99413000D02*
X92746000Y-99413000D01*
X94706000Y-99413000D02*
X95839000Y-99413000D01*
X91640000Y-99373000D02*
X92746000Y-99373000D01*
X94706000Y-99373000D02*
X95812000Y-99373000D01*
X91668000Y-99333000D02*
X92746000Y-99333000D01*
X94706000Y-99333000D02*
X95784000Y-99333000D01*
X91698000Y-99293000D02*
X92746000Y-99293000D01*
X94706000Y-99293000D02*
X95754000Y-99293000D01*
X91729000Y-99253000D02*
X92746000Y-99253000D01*
X94706000Y-99253000D02*
X95723000Y-99253000D01*
X91761000Y-99213000D02*
X92746000Y-99213000D01*
X94706000Y-99213000D02*
X95691000Y-99213000D01*
X91794000Y-99173000D02*
X92746000Y-99173000D01*
X94706000Y-99173000D02*
X95658000Y-99173000D01*
X91829000Y-99133000D02*
X92746000Y-99133000D01*
X94706000Y-99133000D02*
X95623000Y-99133000D01*
X91865000Y-99093000D02*
X92746000Y-99093000D01*
X94706000Y-99093000D02*
X95587000Y-99093000D01*
X91903000Y-99053000D02*
X92746000Y-99053000D01*
X94706000Y-99053000D02*
X95549000Y-99053000D01*
X91943000Y-99013000D02*
X92746000Y-99013000D01*
X94706000Y-99013000D02*
X95509000Y-99013000D01*
X91984000Y-98973000D02*
X92746000Y-98973000D01*
X94706000Y-98973000D02*
X95468000Y-98973000D01*
X92027000Y-98933000D02*
X92746000Y-98933000D01*
X94706000Y-98933000D02*
X95425000Y-98933000D01*
X92072000Y-98893000D02*
X92746000Y-98893000D01*
X94706000Y-98893000D02*
X95380000Y-98893000D01*
X92120000Y-98853000D02*
X95332000Y-98853000D01*
X92170000Y-98813000D02*
X95282000Y-98813000D01*
X92222000Y-98773000D02*
X95230000Y-98773000D01*
X92278000Y-98733000D02*
X95174000Y-98733000D01*
X92336000Y-98693000D02*
X95116000Y-98693000D01*
X92399000Y-98653000D02*
X95053000Y-98653000D01*
X92465000Y-98613000D02*
X94987000Y-98613000D01*
X92537000Y-98573000D02*
X94915000Y-98573000D01*
X92614000Y-98533000D02*
X94838000Y-98533000D01*
X92698000Y-98493000D02*
X94754000Y-98493000D01*
X92792000Y-98453000D02*
X94660000Y-98453000D01*
X92897000Y-98413000D02*
X94555000Y-98413000D01*
X93019000Y-98373000D02*
X94433000Y-98373000D01*
X93167000Y-98333000D02*
X94285000Y-98333000D01*
X93372000Y-98293000D02*
X94080000Y-98293000D01*
X93726000Y-104054000D02*
X93726000Y-102854000D01*
X93076000Y-103454000D02*
X94376000Y-103454000D01*
X92546277Y-120138278D02*
G75*
G03X92546000Y-124749580I1179723J-2305722D01*
G01*
X94905723Y-120138278D02*
G75*
G02X94906000Y-124749580I-1179723J-2305722D01*
G01*
X94905723Y-120138278D02*
G75*
G03X92546000Y-120138420I-1179723J-2305722D01*
G01*
X91176000Y-122444000D02*
X96276000Y-122444000D01*
X91176000Y-122404000D02*
X92746000Y-122404000D01*
X94706000Y-122404000D02*
X96276000Y-122404000D01*
X91177000Y-122364000D02*
X92746000Y-122364000D01*
X94706000Y-122364000D02*
X96275000Y-122364000D01*
X91178000Y-122324000D02*
X92746000Y-122324000D01*
X94706000Y-122324000D02*
X96274000Y-122324000D01*
X91180000Y-122284000D02*
X92746000Y-122284000D01*
X94706000Y-122284000D02*
X96272000Y-122284000D01*
X91183000Y-122244000D02*
X92746000Y-122244000D01*
X94706000Y-122244000D02*
X96269000Y-122244000D01*
X91187000Y-122204000D02*
X92746000Y-122204000D01*
X94706000Y-122204000D02*
X96265000Y-122204000D01*
X91191000Y-122164000D02*
X92746000Y-122164000D01*
X94706000Y-122164000D02*
X96261000Y-122164000D01*
X91195000Y-122124000D02*
X92746000Y-122124000D01*
X94706000Y-122124000D02*
X96257000Y-122124000D01*
X91201000Y-122084000D02*
X92746000Y-122084000D01*
X94706000Y-122084000D02*
X96251000Y-122084000D01*
X91207000Y-122044000D02*
X92746000Y-122044000D01*
X94706000Y-122044000D02*
X96245000Y-122044000D01*
X91213000Y-122004000D02*
X92746000Y-122004000D01*
X94706000Y-122004000D02*
X96239000Y-122004000D01*
X91220000Y-121964000D02*
X92746000Y-121964000D01*
X94706000Y-121964000D02*
X96232000Y-121964000D01*
X91228000Y-121924000D02*
X92746000Y-121924000D01*
X94706000Y-121924000D02*
X96224000Y-121924000D01*
X91237000Y-121884000D02*
X92746000Y-121884000D01*
X94706000Y-121884000D02*
X96215000Y-121884000D01*
X91246000Y-121844000D02*
X92746000Y-121844000D01*
X94706000Y-121844000D02*
X96206000Y-121844000D01*
X91256000Y-121804000D02*
X92746000Y-121804000D01*
X94706000Y-121804000D02*
X96196000Y-121804000D01*
X91266000Y-121764000D02*
X92746000Y-121764000D01*
X94706000Y-121764000D02*
X96186000Y-121764000D01*
X91278000Y-121723000D02*
X92746000Y-121723000D01*
X94706000Y-121723000D02*
X96174000Y-121723000D01*
X91290000Y-121683000D02*
X92746000Y-121683000D01*
X94706000Y-121683000D02*
X96162000Y-121683000D01*
X91302000Y-121643000D02*
X92746000Y-121643000D01*
X94706000Y-121643000D02*
X96150000Y-121643000D01*
X91316000Y-121603000D02*
X92746000Y-121603000D01*
X94706000Y-121603000D02*
X96136000Y-121603000D01*
X91330000Y-121563000D02*
X92746000Y-121563000D01*
X94706000Y-121563000D02*
X96122000Y-121563000D01*
X91344000Y-121523000D02*
X92746000Y-121523000D01*
X94706000Y-121523000D02*
X96108000Y-121523000D01*
X91360000Y-121483000D02*
X92746000Y-121483000D01*
X94706000Y-121483000D02*
X96092000Y-121483000D01*
X91376000Y-121443000D02*
X92746000Y-121443000D01*
X94706000Y-121443000D02*
X96076000Y-121443000D01*
X91393000Y-121403000D02*
X92746000Y-121403000D01*
X94706000Y-121403000D02*
X96059000Y-121403000D01*
X91411000Y-121363000D02*
X92746000Y-121363000D01*
X94706000Y-121363000D02*
X96041000Y-121363000D01*
X91430000Y-121323000D02*
X92746000Y-121323000D01*
X94706000Y-121323000D02*
X96022000Y-121323000D01*
X91450000Y-121283000D02*
X92746000Y-121283000D01*
X94706000Y-121283000D02*
X96002000Y-121283000D01*
X91470000Y-121243000D02*
X92746000Y-121243000D01*
X94706000Y-121243000D02*
X95982000Y-121243000D01*
X91492000Y-121203000D02*
X92746000Y-121203000D01*
X94706000Y-121203000D02*
X95960000Y-121203000D01*
X91514000Y-121163000D02*
X92746000Y-121163000D01*
X94706000Y-121163000D02*
X95938000Y-121163000D01*
X91537000Y-121123000D02*
X92746000Y-121123000D01*
X94706000Y-121123000D02*
X95915000Y-121123000D01*
X91561000Y-121083000D02*
X92746000Y-121083000D01*
X94706000Y-121083000D02*
X95891000Y-121083000D01*
X91586000Y-121043000D02*
X92746000Y-121043000D01*
X94706000Y-121043000D02*
X95866000Y-121043000D01*
X91613000Y-121003000D02*
X92746000Y-121003000D01*
X94706000Y-121003000D02*
X95839000Y-121003000D01*
X91640000Y-120963000D02*
X92746000Y-120963000D01*
X94706000Y-120963000D02*
X95812000Y-120963000D01*
X91668000Y-120923000D02*
X92746000Y-120923000D01*
X94706000Y-120923000D02*
X95784000Y-120923000D01*
X91698000Y-120883000D02*
X92746000Y-120883000D01*
X94706000Y-120883000D02*
X95754000Y-120883000D01*
X91729000Y-120843000D02*
X92746000Y-120843000D01*
X94706000Y-120843000D02*
X95723000Y-120843000D01*
X91761000Y-120803000D02*
X92746000Y-120803000D01*
X94706000Y-120803000D02*
X95691000Y-120803000D01*
X91794000Y-120763000D02*
X92746000Y-120763000D01*
X94706000Y-120763000D02*
X95658000Y-120763000D01*
X91829000Y-120723000D02*
X92746000Y-120723000D01*
X94706000Y-120723000D02*
X95623000Y-120723000D01*
X91865000Y-120683000D02*
X92746000Y-120683000D01*
X94706000Y-120683000D02*
X95587000Y-120683000D01*
X91903000Y-120643000D02*
X92746000Y-120643000D01*
X94706000Y-120643000D02*
X95549000Y-120643000D01*
X91943000Y-120603000D02*
X92746000Y-120603000D01*
X94706000Y-120603000D02*
X95509000Y-120603000D01*
X91984000Y-120563000D02*
X92746000Y-120563000D01*
X94706000Y-120563000D02*
X95468000Y-120563000D01*
X92027000Y-120523000D02*
X92746000Y-120523000D01*
X94706000Y-120523000D02*
X95425000Y-120523000D01*
X92072000Y-120483000D02*
X92746000Y-120483000D01*
X94706000Y-120483000D02*
X95380000Y-120483000D01*
X92120000Y-120443000D02*
X95332000Y-120443000D01*
X92170000Y-120403000D02*
X95282000Y-120403000D01*
X92222000Y-120363000D02*
X95230000Y-120363000D01*
X92278000Y-120323000D02*
X95174000Y-120323000D01*
X92336000Y-120283000D02*
X95116000Y-120283000D01*
X92399000Y-120243000D02*
X95053000Y-120243000D01*
X92465000Y-120203000D02*
X94987000Y-120203000D01*
X92537000Y-120163000D02*
X94915000Y-120163000D01*
X92614000Y-120123000D02*
X94838000Y-120123000D01*
X92698000Y-120083000D02*
X94754000Y-120083000D01*
X92792000Y-120043000D02*
X94660000Y-120043000D01*
X92897000Y-120003000D02*
X94555000Y-120003000D01*
X93019000Y-119963000D02*
X94433000Y-119963000D01*
X93167000Y-119923000D02*
X94285000Y-119923000D01*
X93372000Y-119883000D02*
X94080000Y-119883000D01*
X93726000Y-125644000D02*
X93726000Y-124444000D01*
X93076000Y-125044000D02*
X94376000Y-125044000D01*
X93076000Y-117932000D02*
X94376000Y-117932000D01*
X93726000Y-118532000D02*
X93726000Y-117332000D01*
X93372000Y-112771000D02*
X94080000Y-112771000D01*
X93167000Y-112811000D02*
X94285000Y-112811000D01*
X93019000Y-112851000D02*
X94433000Y-112851000D01*
X92897000Y-112891000D02*
X94555000Y-112891000D01*
X92792000Y-112931000D02*
X94660000Y-112931000D01*
X92698000Y-112971000D02*
X94754000Y-112971000D01*
X92614000Y-113011000D02*
X94838000Y-113011000D01*
X92537000Y-113051000D02*
X94915000Y-113051000D01*
X92465000Y-113091000D02*
X94987000Y-113091000D01*
X92399000Y-113131000D02*
X95053000Y-113131000D01*
X92336000Y-113171000D02*
X95116000Y-113171000D01*
X92278000Y-113211000D02*
X95174000Y-113211000D01*
X92222000Y-113251000D02*
X95230000Y-113251000D01*
X92170000Y-113291000D02*
X95282000Y-113291000D01*
X92120000Y-113331000D02*
X95332000Y-113331000D01*
X94706000Y-113371000D02*
X95380000Y-113371000D01*
X92072000Y-113371000D02*
X92746000Y-113371000D01*
X94706000Y-113411000D02*
X95425000Y-113411000D01*
X92027000Y-113411000D02*
X92746000Y-113411000D01*
X94706000Y-113451000D02*
X95468000Y-113451000D01*
X91984000Y-113451000D02*
X92746000Y-113451000D01*
X94706000Y-113491000D02*
X95509000Y-113491000D01*
X91943000Y-113491000D02*
X92746000Y-113491000D01*
X94706000Y-113531000D02*
X95549000Y-113531000D01*
X91903000Y-113531000D02*
X92746000Y-113531000D01*
X94706000Y-113571000D02*
X95587000Y-113571000D01*
X91865000Y-113571000D02*
X92746000Y-113571000D01*
X94706000Y-113611000D02*
X95623000Y-113611000D01*
X91829000Y-113611000D02*
X92746000Y-113611000D01*
X94706000Y-113651000D02*
X95658000Y-113651000D01*
X91794000Y-113651000D02*
X92746000Y-113651000D01*
X94706000Y-113691000D02*
X95691000Y-113691000D01*
X91761000Y-113691000D02*
X92746000Y-113691000D01*
X94706000Y-113731000D02*
X95723000Y-113731000D01*
X91729000Y-113731000D02*
X92746000Y-113731000D01*
X94706000Y-113771000D02*
X95754000Y-113771000D01*
X91698000Y-113771000D02*
X92746000Y-113771000D01*
X94706000Y-113811000D02*
X95784000Y-113811000D01*
X91668000Y-113811000D02*
X92746000Y-113811000D01*
X94706000Y-113851000D02*
X95812000Y-113851000D01*
X91640000Y-113851000D02*
X92746000Y-113851000D01*
X94706000Y-113891000D02*
X95839000Y-113891000D01*
X91613000Y-113891000D02*
X92746000Y-113891000D01*
X94706000Y-113931000D02*
X95866000Y-113931000D01*
X91586000Y-113931000D02*
X92746000Y-113931000D01*
X94706000Y-113971000D02*
X95891000Y-113971000D01*
X91561000Y-113971000D02*
X92746000Y-113971000D01*
X94706000Y-114011000D02*
X95915000Y-114011000D01*
X91537000Y-114011000D02*
X92746000Y-114011000D01*
X94706000Y-114051000D02*
X95938000Y-114051000D01*
X91514000Y-114051000D02*
X92746000Y-114051000D01*
X94706000Y-114091000D02*
X95960000Y-114091000D01*
X91492000Y-114091000D02*
X92746000Y-114091000D01*
X94706000Y-114131000D02*
X95982000Y-114131000D01*
X91470000Y-114131000D02*
X92746000Y-114131000D01*
X94706000Y-114171000D02*
X96002000Y-114171000D01*
X91450000Y-114171000D02*
X92746000Y-114171000D01*
X94706000Y-114211000D02*
X96022000Y-114211000D01*
X91430000Y-114211000D02*
X92746000Y-114211000D01*
X94706000Y-114251000D02*
X96041000Y-114251000D01*
X91411000Y-114251000D02*
X92746000Y-114251000D01*
X94706000Y-114291000D02*
X96059000Y-114291000D01*
X91393000Y-114291000D02*
X92746000Y-114291000D01*
X94706000Y-114331000D02*
X96076000Y-114331000D01*
X91376000Y-114331000D02*
X92746000Y-114331000D01*
X94706000Y-114371000D02*
X96092000Y-114371000D01*
X91360000Y-114371000D02*
X92746000Y-114371000D01*
X94706000Y-114411000D02*
X96108000Y-114411000D01*
X91344000Y-114411000D02*
X92746000Y-114411000D01*
X94706000Y-114451000D02*
X96122000Y-114451000D01*
X91330000Y-114451000D02*
X92746000Y-114451000D01*
X94706000Y-114491000D02*
X96136000Y-114491000D01*
X91316000Y-114491000D02*
X92746000Y-114491000D01*
X94706000Y-114531000D02*
X96150000Y-114531000D01*
X91302000Y-114531000D02*
X92746000Y-114531000D01*
X94706000Y-114571000D02*
X96162000Y-114571000D01*
X91290000Y-114571000D02*
X92746000Y-114571000D01*
X94706000Y-114611000D02*
X96174000Y-114611000D01*
X91278000Y-114611000D02*
X92746000Y-114611000D01*
X94706000Y-114652000D02*
X96186000Y-114652000D01*
X91266000Y-114652000D02*
X92746000Y-114652000D01*
X94706000Y-114692000D02*
X96196000Y-114692000D01*
X91256000Y-114692000D02*
X92746000Y-114692000D01*
X94706000Y-114732000D02*
X96206000Y-114732000D01*
X91246000Y-114732000D02*
X92746000Y-114732000D01*
X94706000Y-114772000D02*
X96215000Y-114772000D01*
X91237000Y-114772000D02*
X92746000Y-114772000D01*
X94706000Y-114812000D02*
X96224000Y-114812000D01*
X91228000Y-114812000D02*
X92746000Y-114812000D01*
X94706000Y-114852000D02*
X96232000Y-114852000D01*
X91220000Y-114852000D02*
X92746000Y-114852000D01*
X94706000Y-114892000D02*
X96239000Y-114892000D01*
X91213000Y-114892000D02*
X92746000Y-114892000D01*
X94706000Y-114932000D02*
X96245000Y-114932000D01*
X91207000Y-114932000D02*
X92746000Y-114932000D01*
X94706000Y-114972000D02*
X96251000Y-114972000D01*
X91201000Y-114972000D02*
X92746000Y-114972000D01*
X94706000Y-115012000D02*
X96257000Y-115012000D01*
X91195000Y-115012000D02*
X92746000Y-115012000D01*
X94706000Y-115052000D02*
X96261000Y-115052000D01*
X91191000Y-115052000D02*
X92746000Y-115052000D01*
X94706000Y-115092000D02*
X96265000Y-115092000D01*
X91187000Y-115092000D02*
X92746000Y-115092000D01*
X94706000Y-115132000D02*
X96269000Y-115132000D01*
X91183000Y-115132000D02*
X92746000Y-115132000D01*
X94706000Y-115172000D02*
X96272000Y-115172000D01*
X91180000Y-115172000D02*
X92746000Y-115172000D01*
X94706000Y-115212000D02*
X96274000Y-115212000D01*
X91178000Y-115212000D02*
X92746000Y-115212000D01*
X94706000Y-115252000D02*
X96275000Y-115252000D01*
X91177000Y-115252000D02*
X92746000Y-115252000D01*
X94706000Y-115292000D02*
X96276000Y-115292000D01*
X91176000Y-115292000D02*
X92746000Y-115292000D01*
X91176000Y-115332000D02*
X96276000Y-115332000D01*
X94905723Y-113026278D02*
G75*
G03X92546000Y-113026420I-1179723J-2305722D01*
G01*
X94905723Y-113026278D02*
G75*
G02X94906000Y-117637580I-1179723J-2305722D01*
G01*
X92546277Y-113026278D02*
G75*
G03X92546000Y-117637580I1179723J-2305722D01*
G01*
X93076000Y-110820000D02*
X94376000Y-110820000D01*
X93726000Y-111420000D02*
X93726000Y-110220000D01*
X93372000Y-105659000D02*
X94080000Y-105659000D01*
X93167000Y-105699000D02*
X94285000Y-105699000D01*
X93019000Y-105739000D02*
X94433000Y-105739000D01*
X92897000Y-105779000D02*
X94555000Y-105779000D01*
X92792000Y-105819000D02*
X94660000Y-105819000D01*
X92698000Y-105859000D02*
X94754000Y-105859000D01*
X92614000Y-105899000D02*
X94838000Y-105899000D01*
X92537000Y-105939000D02*
X94915000Y-105939000D01*
X92465000Y-105979000D02*
X94987000Y-105979000D01*
X92399000Y-106019000D02*
X95053000Y-106019000D01*
X92336000Y-106059000D02*
X95116000Y-106059000D01*
X92278000Y-106099000D02*
X95174000Y-106099000D01*
X92222000Y-106139000D02*
X95230000Y-106139000D01*
X92170000Y-106179000D02*
X95282000Y-106179000D01*
X92120000Y-106219000D02*
X95332000Y-106219000D01*
X94706000Y-106259000D02*
X95380000Y-106259000D01*
X92072000Y-106259000D02*
X92746000Y-106259000D01*
X94706000Y-106299000D02*
X95425000Y-106299000D01*
X92027000Y-106299000D02*
X92746000Y-106299000D01*
X94706000Y-106339000D02*
X95468000Y-106339000D01*
X91984000Y-106339000D02*
X92746000Y-106339000D01*
X94706000Y-106379000D02*
X95509000Y-106379000D01*
X91943000Y-106379000D02*
X92746000Y-106379000D01*
X94706000Y-106419000D02*
X95549000Y-106419000D01*
X91903000Y-106419000D02*
X92746000Y-106419000D01*
X94706000Y-106459000D02*
X95587000Y-106459000D01*
X91865000Y-106459000D02*
X92746000Y-106459000D01*
X94706000Y-106499000D02*
X95623000Y-106499000D01*
X91829000Y-106499000D02*
X92746000Y-106499000D01*
X94706000Y-106539000D02*
X95658000Y-106539000D01*
X91794000Y-106539000D02*
X92746000Y-106539000D01*
X94706000Y-106579000D02*
X95691000Y-106579000D01*
X91761000Y-106579000D02*
X92746000Y-106579000D01*
X94706000Y-106619000D02*
X95723000Y-106619000D01*
X91729000Y-106619000D02*
X92746000Y-106619000D01*
X94706000Y-106659000D02*
X95754000Y-106659000D01*
X91698000Y-106659000D02*
X92746000Y-106659000D01*
X94706000Y-106699000D02*
X95784000Y-106699000D01*
X91668000Y-106699000D02*
X92746000Y-106699000D01*
X94706000Y-106739000D02*
X95812000Y-106739000D01*
X91640000Y-106739000D02*
X92746000Y-106739000D01*
X94706000Y-106779000D02*
X95839000Y-106779000D01*
X91613000Y-106779000D02*
X92746000Y-106779000D01*
X94706000Y-106819000D02*
X95866000Y-106819000D01*
X91586000Y-106819000D02*
X92746000Y-106819000D01*
X94706000Y-106859000D02*
X95891000Y-106859000D01*
X91561000Y-106859000D02*
X92746000Y-106859000D01*
X94706000Y-106899000D02*
X95915000Y-106899000D01*
X91537000Y-106899000D02*
X92746000Y-106899000D01*
X94706000Y-106939000D02*
X95938000Y-106939000D01*
X91514000Y-106939000D02*
X92746000Y-106939000D01*
X94706000Y-106979000D02*
X95960000Y-106979000D01*
X91492000Y-106979000D02*
X92746000Y-106979000D01*
X94706000Y-107019000D02*
X95982000Y-107019000D01*
X91470000Y-107019000D02*
X92746000Y-107019000D01*
X94706000Y-107059000D02*
X96002000Y-107059000D01*
X91450000Y-107059000D02*
X92746000Y-107059000D01*
X94706000Y-107099000D02*
X96022000Y-107099000D01*
X91430000Y-107099000D02*
X92746000Y-107099000D01*
X94706000Y-107139000D02*
X96041000Y-107139000D01*
X91411000Y-107139000D02*
X92746000Y-107139000D01*
X94706000Y-107179000D02*
X96059000Y-107179000D01*
X91393000Y-107179000D02*
X92746000Y-107179000D01*
X94706000Y-107219000D02*
X96076000Y-107219000D01*
X91376000Y-107219000D02*
X92746000Y-107219000D01*
X94706000Y-107259000D02*
X96092000Y-107259000D01*
X91360000Y-107259000D02*
X92746000Y-107259000D01*
X94706000Y-107299000D02*
X96108000Y-107299000D01*
X91344000Y-107299000D02*
X92746000Y-107299000D01*
X94706000Y-107339000D02*
X96122000Y-107339000D01*
X91330000Y-107339000D02*
X92746000Y-107339000D01*
X94706000Y-107379000D02*
X96136000Y-107379000D01*
X91316000Y-107379000D02*
X92746000Y-107379000D01*
X94706000Y-107419000D02*
X96150000Y-107419000D01*
X91302000Y-107419000D02*
X92746000Y-107419000D01*
X94706000Y-107459000D02*
X96162000Y-107459000D01*
X91290000Y-107459000D02*
X92746000Y-107459000D01*
X94706000Y-107499000D02*
X96174000Y-107499000D01*
X91278000Y-107499000D02*
X92746000Y-107499000D01*
X94706000Y-107540000D02*
X96186000Y-107540000D01*
X91266000Y-107540000D02*
X92746000Y-107540000D01*
X94706000Y-107580000D02*
X96196000Y-107580000D01*
X91256000Y-107580000D02*
X92746000Y-107580000D01*
X94706000Y-107620000D02*
X96206000Y-107620000D01*
X91246000Y-107620000D02*
X92746000Y-107620000D01*
X94706000Y-107660000D02*
X96215000Y-107660000D01*
X91237000Y-107660000D02*
X92746000Y-107660000D01*
X94706000Y-107700000D02*
X96224000Y-107700000D01*
X91228000Y-107700000D02*
X92746000Y-107700000D01*
X94706000Y-107740000D02*
X96232000Y-107740000D01*
X91220000Y-107740000D02*
X92746000Y-107740000D01*
X94706000Y-107780000D02*
X96239000Y-107780000D01*
X91213000Y-107780000D02*
X92746000Y-107780000D01*
X94706000Y-107820000D02*
X96245000Y-107820000D01*
X91207000Y-107820000D02*
X92746000Y-107820000D01*
X94706000Y-107860000D02*
X96251000Y-107860000D01*
X91201000Y-107860000D02*
X92746000Y-107860000D01*
X94706000Y-107900000D02*
X96257000Y-107900000D01*
X91195000Y-107900000D02*
X92746000Y-107900000D01*
X94706000Y-107940000D02*
X96261000Y-107940000D01*
X91191000Y-107940000D02*
X92746000Y-107940000D01*
X94706000Y-107980000D02*
X96265000Y-107980000D01*
X91187000Y-107980000D02*
X92746000Y-107980000D01*
X94706000Y-108020000D02*
X96269000Y-108020000D01*
X91183000Y-108020000D02*
X92746000Y-108020000D01*
X94706000Y-108060000D02*
X96272000Y-108060000D01*
X91180000Y-108060000D02*
X92746000Y-108060000D01*
X94706000Y-108100000D02*
X96274000Y-108100000D01*
X91178000Y-108100000D02*
X92746000Y-108100000D01*
X94706000Y-108140000D02*
X96275000Y-108140000D01*
X91177000Y-108140000D02*
X92746000Y-108140000D01*
X94706000Y-108180000D02*
X96276000Y-108180000D01*
X91176000Y-108180000D02*
X92746000Y-108180000D01*
X91176000Y-108220000D02*
X96276000Y-108220000D01*
X94905723Y-105914278D02*
G75*
G03X92546000Y-105914420I-1179723J-2305722D01*
G01*
X94905723Y-105914278D02*
G75*
G02X94906000Y-110525580I-1179723J-2305722D01*
G01*
X92546277Y-105914278D02*
G75*
G03X92546000Y-110525580I1179723J-2305722D01*
G01*
X93076000Y-96088000D02*
X94376000Y-96088000D01*
X93726000Y-96688000D02*
X93726000Y-95488000D01*
X93372000Y-90927000D02*
X94080000Y-90927000D01*
X93167000Y-90967000D02*
X94285000Y-90967000D01*
X93019000Y-91007000D02*
X94433000Y-91007000D01*
X92897000Y-91047000D02*
X94555000Y-91047000D01*
X92792000Y-91087000D02*
X94660000Y-91087000D01*
X92698000Y-91127000D02*
X94754000Y-91127000D01*
X92614000Y-91167000D02*
X94838000Y-91167000D01*
X92537000Y-91207000D02*
X94915000Y-91207000D01*
X92465000Y-91247000D02*
X94987000Y-91247000D01*
X92399000Y-91287000D02*
X95053000Y-91287000D01*
X92336000Y-91327000D02*
X95116000Y-91327000D01*
X92278000Y-91367000D02*
X95174000Y-91367000D01*
X92222000Y-91407000D02*
X95230000Y-91407000D01*
X92170000Y-91447000D02*
X95282000Y-91447000D01*
X92120000Y-91487000D02*
X95332000Y-91487000D01*
X94706000Y-91527000D02*
X95380000Y-91527000D01*
X92072000Y-91527000D02*
X92746000Y-91527000D01*
X94706000Y-91567000D02*
X95425000Y-91567000D01*
X92027000Y-91567000D02*
X92746000Y-91567000D01*
X94706000Y-91607000D02*
X95468000Y-91607000D01*
X91984000Y-91607000D02*
X92746000Y-91607000D01*
X94706000Y-91647000D02*
X95509000Y-91647000D01*
X91943000Y-91647000D02*
X92746000Y-91647000D01*
X94706000Y-91687000D02*
X95549000Y-91687000D01*
X91903000Y-91687000D02*
X92746000Y-91687000D01*
X94706000Y-91727000D02*
X95587000Y-91727000D01*
X91865000Y-91727000D02*
X92746000Y-91727000D01*
X94706000Y-91767000D02*
X95623000Y-91767000D01*
X91829000Y-91767000D02*
X92746000Y-91767000D01*
X94706000Y-91807000D02*
X95658000Y-91807000D01*
X91794000Y-91807000D02*
X92746000Y-91807000D01*
X94706000Y-91847000D02*
X95691000Y-91847000D01*
X91761000Y-91847000D02*
X92746000Y-91847000D01*
X94706000Y-91887000D02*
X95723000Y-91887000D01*
X91729000Y-91887000D02*
X92746000Y-91887000D01*
X94706000Y-91927000D02*
X95754000Y-91927000D01*
X91698000Y-91927000D02*
X92746000Y-91927000D01*
X94706000Y-91967000D02*
X95784000Y-91967000D01*
X91668000Y-91967000D02*
X92746000Y-91967000D01*
X94706000Y-92007000D02*
X95812000Y-92007000D01*
X91640000Y-92007000D02*
X92746000Y-92007000D01*
X94706000Y-92047000D02*
X95839000Y-92047000D01*
X91613000Y-92047000D02*
X92746000Y-92047000D01*
X94706000Y-92087000D02*
X95866000Y-92087000D01*
X91586000Y-92087000D02*
X92746000Y-92087000D01*
X94706000Y-92127000D02*
X95891000Y-92127000D01*
X91561000Y-92127000D02*
X92746000Y-92127000D01*
X94706000Y-92167000D02*
X95915000Y-92167000D01*
X91537000Y-92167000D02*
X92746000Y-92167000D01*
X94706000Y-92207000D02*
X95938000Y-92207000D01*
X91514000Y-92207000D02*
X92746000Y-92207000D01*
X94706000Y-92247000D02*
X95960000Y-92247000D01*
X91492000Y-92247000D02*
X92746000Y-92247000D01*
X94706000Y-92287000D02*
X95982000Y-92287000D01*
X91470000Y-92287000D02*
X92746000Y-92287000D01*
X94706000Y-92327000D02*
X96002000Y-92327000D01*
X91450000Y-92327000D02*
X92746000Y-92327000D01*
X94706000Y-92367000D02*
X96022000Y-92367000D01*
X91430000Y-92367000D02*
X92746000Y-92367000D01*
X94706000Y-92407000D02*
X96041000Y-92407000D01*
X91411000Y-92407000D02*
X92746000Y-92407000D01*
X94706000Y-92447000D02*
X96059000Y-92447000D01*
X91393000Y-92447000D02*
X92746000Y-92447000D01*
X94706000Y-92487000D02*
X96076000Y-92487000D01*
X91376000Y-92487000D02*
X92746000Y-92487000D01*
X94706000Y-92527000D02*
X96092000Y-92527000D01*
X91360000Y-92527000D02*
X92746000Y-92527000D01*
X94706000Y-92567000D02*
X96108000Y-92567000D01*
X91344000Y-92567000D02*
X92746000Y-92567000D01*
X94706000Y-92607000D02*
X96122000Y-92607000D01*
X91330000Y-92607000D02*
X92746000Y-92607000D01*
X94706000Y-92647000D02*
X96136000Y-92647000D01*
X91316000Y-92647000D02*
X92746000Y-92647000D01*
X94706000Y-92687000D02*
X96150000Y-92687000D01*
X91302000Y-92687000D02*
X92746000Y-92687000D01*
X94706000Y-92727000D02*
X96162000Y-92727000D01*
X91290000Y-92727000D02*
X92746000Y-92727000D01*
X94706000Y-92767000D02*
X96174000Y-92767000D01*
X91278000Y-92767000D02*
X92746000Y-92767000D01*
X94706000Y-92808000D02*
X96186000Y-92808000D01*
X91266000Y-92808000D02*
X92746000Y-92808000D01*
X94706000Y-92848000D02*
X96196000Y-92848000D01*
X91256000Y-92848000D02*
X92746000Y-92848000D01*
X94706000Y-92888000D02*
X96206000Y-92888000D01*
X91246000Y-92888000D02*
X92746000Y-92888000D01*
X94706000Y-92928000D02*
X96215000Y-92928000D01*
X91237000Y-92928000D02*
X92746000Y-92928000D01*
X94706000Y-92968000D02*
X96224000Y-92968000D01*
X91228000Y-92968000D02*
X92746000Y-92968000D01*
X94706000Y-93008000D02*
X96232000Y-93008000D01*
X91220000Y-93008000D02*
X92746000Y-93008000D01*
X94706000Y-93048000D02*
X96239000Y-93048000D01*
X91213000Y-93048000D02*
X92746000Y-93048000D01*
X94706000Y-93088000D02*
X96245000Y-93088000D01*
X91207000Y-93088000D02*
X92746000Y-93088000D01*
X94706000Y-93128000D02*
X96251000Y-93128000D01*
X91201000Y-93128000D02*
X92746000Y-93128000D01*
X94706000Y-93168000D02*
X96257000Y-93168000D01*
X91195000Y-93168000D02*
X92746000Y-93168000D01*
X94706000Y-93208000D02*
X96261000Y-93208000D01*
X91191000Y-93208000D02*
X92746000Y-93208000D01*
X94706000Y-93248000D02*
X96265000Y-93248000D01*
X91187000Y-93248000D02*
X92746000Y-93248000D01*
X94706000Y-93288000D02*
X96269000Y-93288000D01*
X91183000Y-93288000D02*
X92746000Y-93288000D01*
X94706000Y-93328000D02*
X96272000Y-93328000D01*
X91180000Y-93328000D02*
X92746000Y-93328000D01*
X94706000Y-93368000D02*
X96274000Y-93368000D01*
X91178000Y-93368000D02*
X92746000Y-93368000D01*
X94706000Y-93408000D02*
X96275000Y-93408000D01*
X91177000Y-93408000D02*
X92746000Y-93408000D01*
X94706000Y-93448000D02*
X96276000Y-93448000D01*
X91176000Y-93448000D02*
X92746000Y-93448000D01*
X91176000Y-93488000D02*
X96276000Y-93488000D01*
X94905723Y-91182278D02*
G75*
G03X92546000Y-91182420I-1179723J-2305722D01*
G01*
X94905723Y-91182278D02*
G75*
G02X94906000Y-95793580I-1179723J-2305722D01*
G01*
X92546277Y-91182278D02*
G75*
G03X92546000Y-95793580I1179723J-2305722D01*
G01*
D11*
X95056000Y-59390000D02*
X94456000Y-59690000D01*
X95056000Y-59990000D02*
X95056000Y-59390000D01*
X94456000Y-59690000D02*
X95056000Y-59990000D01*
X89306000Y-50390000D02*
X89306000Y-60990000D01*
X93606000Y-50390000D02*
X89306000Y-50390000D01*
X93606000Y-60990000D02*
X93606000Y-50390000D01*
X89306000Y-60990000D02*
X93606000Y-60990000D01*
X88706000Y-49790000D02*
X88706000Y-61590000D01*
X94206000Y-49790000D02*
X88706000Y-49790000D01*
X94206000Y-61590000D02*
X94206000Y-49790000D01*
X88706000Y-61590000D02*
X94206000Y-61590000D01*
D10*
X73752000Y-100584000D02*
X74582000Y-100584000D01*
X77822000Y-100584000D02*
X83562000Y-100584000D01*
X69692000Y-100584000D02*
X70512000Y-100584000D01*
X83562000Y-100584000D02*
X83562000Y-120904000D01*
X60702000Y-100584000D02*
X66452000Y-100584000D01*
X60702000Y-100584000D02*
X60702000Y-120904000D01*
X85472000Y-120904000D02*
X58802000Y-120904000D01*
X85472000Y-122814000D02*
X85472000Y-120904000D01*
X58802000Y-122814000D02*
X85472000Y-122814000D01*
X58802000Y-120904000D02*
X58802000Y-122814000D01*
X73402000Y-96294000D02*
X73402000Y-99574000D01*
X70862000Y-96294000D02*
X70862000Y-99574000D01*
X83562000Y-125354000D02*
X83562000Y-122814000D01*
X60702000Y-125354000D02*
X83562000Y-125354000D01*
X60702000Y-124714000D02*
X60702000Y-125354000D01*
X60702000Y-122814000D02*
X60702000Y-124714000D01*
X60116000Y-89056000D02*
X63836000Y-89056000D01*
X60116000Y-90776000D02*
X63836000Y-90776000D01*
X60116000Y-85696000D02*
X63836000Y-85696000D01*
X60116000Y-83976000D02*
X63836000Y-83976000D01*
X72800000Y-83902000D02*
X72800000Y-80182000D01*
X74520000Y-83902000D02*
X74520000Y-80182000D01*
X60116000Y-78896000D02*
X63836000Y-78896000D01*
X60116000Y-80616000D02*
X63836000Y-80616000D01*
X69440000Y-83902000D02*
X69440000Y-80182000D01*
X67720000Y-83902000D02*
X67720000Y-80182000D01*
X79600000Y-83902000D02*
X79600000Y-80182000D01*
X77880000Y-83902000D02*
X77880000Y-80182000D01*
X69260000Y-89056000D02*
X72980000Y-89056000D01*
X69260000Y-90776000D02*
X72980000Y-90776000D01*
X76880000Y-90776000D02*
X80600000Y-90776000D01*
X76880000Y-89056000D02*
X80600000Y-89056000D01*
X97402000Y-78038000D02*
X97402000Y-67758000D01*
X87002000Y-78038000D02*
X97402000Y-78038000D01*
X87002000Y-67758000D02*
X87002000Y-78038000D01*
X97402000Y-67758000D02*
X87002000Y-67758000D01*
X97342000Y-75548000D02*
X97342000Y-73898000D01*
X87062000Y-75548000D02*
X97342000Y-75548000D01*
X87062000Y-70248000D02*
X87062000Y-75548000D01*
X97342000Y-70248000D02*
X87062000Y-70248000D01*
X97342000Y-71898000D02*
X97342000Y-70248000D01*
X97342000Y-73898000D02*
G75*
G02X97342000Y-71898000I0J1000000D01*
G01*
X70680000Y-49720000D02*
X76800000Y-49720000D01*
X70680000Y-59720000D02*
X76800000Y-59720000D01*
X76800000Y-59720000D02*
X76800000Y-49720000D01*
X70680000Y-59720000D02*
X70680000Y-49720000D01*
X70180000Y-59720000D02*
X77300000Y-59720000D01*
X70180000Y-64720000D02*
X77300000Y-64720000D01*
X77300000Y-64720000D02*
X77300000Y-59720000D01*
X70180000Y-64720000D02*
X70180000Y-59720000D01*
X64730000Y-64720000D02*
X82751000Y-64720000D01*
X64730000Y-75340000D02*
X82751000Y-75340000D01*
X82751000Y-75340000D02*
X82751000Y-64720000D01*
X64730000Y-75340000D02*
X64730000Y-64720000D01*
D11*
X90273142Y-101020666D02*
X90320761Y-101068285D01*
X90368380Y-101211142D01*
X90368380Y-101306380D01*
X90320761Y-101449238D01*
X90225523Y-101544476D01*
X90130285Y-101592095D01*
X89939809Y-101639714D01*
X89796952Y-101639714D01*
X89606476Y-101592095D01*
X89511238Y-101544476D01*
X89416000Y-101449238D01*
X89368380Y-101306380D01*
X89368380Y-101211142D01*
X89416000Y-101068285D01*
X89463619Y-101020666D01*
X89701714Y-100163523D02*
X90368380Y-100163523D01*
X89320761Y-100401619D02*
X90035047Y-100639714D01*
X90035047Y-100020666D01*
X90273142Y-122610666D02*
X90320761Y-122658285D01*
X90368380Y-122801142D01*
X90368380Y-122896380D01*
X90320761Y-123039238D01*
X90225523Y-123134476D01*
X90130285Y-123182095D01*
X89939809Y-123229714D01*
X89796952Y-123229714D01*
X89606476Y-123182095D01*
X89511238Y-123134476D01*
X89416000Y-123039238D01*
X89368380Y-122896380D01*
X89368380Y-122801142D01*
X89416000Y-122658285D01*
X89463619Y-122610666D01*
X90368380Y-121658285D02*
X90368380Y-122229714D01*
X90368380Y-121944000D02*
X89368380Y-121944000D01*
X89511238Y-122039238D01*
X89606476Y-122134476D01*
X89654095Y-122229714D01*
X90273142Y-115498666D02*
X90320761Y-115546285D01*
X90368380Y-115689142D01*
X90368380Y-115784380D01*
X90320761Y-115927238D01*
X90225523Y-116022476D01*
X90130285Y-116070095D01*
X89939809Y-116117714D01*
X89796952Y-116117714D01*
X89606476Y-116070095D01*
X89511238Y-116022476D01*
X89416000Y-115927238D01*
X89368380Y-115784380D01*
X89368380Y-115689142D01*
X89416000Y-115546285D01*
X89463619Y-115498666D01*
X89463619Y-115117714D02*
X89416000Y-115070095D01*
X89368380Y-114974857D01*
X89368380Y-114736761D01*
X89416000Y-114641523D01*
X89463619Y-114593904D01*
X89558857Y-114546285D01*
X89654095Y-114546285D01*
X89796952Y-114593904D01*
X90368380Y-115165333D01*
X90368380Y-114546285D01*
X90273142Y-108386666D02*
X90320761Y-108434285D01*
X90368380Y-108577142D01*
X90368380Y-108672380D01*
X90320761Y-108815238D01*
X90225523Y-108910476D01*
X90130285Y-108958095D01*
X89939809Y-109005714D01*
X89796952Y-109005714D01*
X89606476Y-108958095D01*
X89511238Y-108910476D01*
X89416000Y-108815238D01*
X89368380Y-108672380D01*
X89368380Y-108577142D01*
X89416000Y-108434285D01*
X89463619Y-108386666D01*
X89368380Y-108053333D02*
X89368380Y-107434285D01*
X89749333Y-107767619D01*
X89749333Y-107624761D01*
X89796952Y-107529523D01*
X89844571Y-107481904D01*
X89939809Y-107434285D01*
X90177904Y-107434285D01*
X90273142Y-107481904D01*
X90320761Y-107529523D01*
X90368380Y-107624761D01*
X90368380Y-107910476D01*
X90320761Y-108005714D01*
X90273142Y-108053333D01*
X90273142Y-93654666D02*
X90320761Y-93702285D01*
X90368380Y-93845142D01*
X90368380Y-93940380D01*
X90320761Y-94083238D01*
X90225523Y-94178476D01*
X90130285Y-94226095D01*
X89939809Y-94273714D01*
X89796952Y-94273714D01*
X89606476Y-94226095D01*
X89511238Y-94178476D01*
X89416000Y-94083238D01*
X89368380Y-93940380D01*
X89368380Y-93845142D01*
X89416000Y-93702285D01*
X89463619Y-93654666D01*
X89368380Y-92749904D02*
X89368380Y-93226095D01*
X89844571Y-93273714D01*
X89796952Y-93226095D01*
X89749333Y-93130857D01*
X89749333Y-92892761D01*
X89796952Y-92797523D01*
X89844571Y-92749904D01*
X89939809Y-92702285D01*
X90177904Y-92702285D01*
X90273142Y-92749904D01*
X90320761Y-92797523D01*
X90368380Y-92892761D01*
X90368380Y-93130857D01*
X90320761Y-93226095D01*
X90273142Y-93273714D01*
X86574380Y-54435333D02*
X87288666Y-54435333D01*
X87431523Y-54482952D01*
X87526761Y-54578190D01*
X87574380Y-54721047D01*
X87574380Y-54816285D01*
X87574380Y-53435333D02*
X87574380Y-54006761D01*
X87574380Y-53721047D02*
X86574380Y-53721047D01*
X86717238Y-53816285D01*
X86812476Y-53911523D01*
X86860095Y-54006761D01*
X71798666Y-110196380D02*
X71798666Y-110910666D01*
X71751047Y-111053523D01*
X71655809Y-111148761D01*
X71512952Y-111196380D01*
X71417714Y-111196380D01*
X72227238Y-110291619D02*
X72274857Y-110244000D01*
X72370095Y-110196380D01*
X72608190Y-110196380D01*
X72703428Y-110244000D01*
X72751047Y-110291619D01*
X72798666Y-110386857D01*
X72798666Y-110482095D01*
X72751047Y-110624952D01*
X72179619Y-111196380D01*
X72798666Y-111196380D01*
X61809333Y-88508380D02*
X61476000Y-88032190D01*
X61237904Y-88508380D02*
X61237904Y-87508380D01*
X61618857Y-87508380D01*
X61714095Y-87556000D01*
X61761714Y-87603619D01*
X61809333Y-87698857D01*
X61809333Y-87841714D01*
X61761714Y-87936952D01*
X61714095Y-87984571D01*
X61618857Y-88032190D01*
X61237904Y-88032190D01*
X62761714Y-88508380D02*
X62190285Y-88508380D01*
X62476000Y-88508380D02*
X62476000Y-87508380D01*
X62380761Y-87651238D01*
X62285523Y-87746476D01*
X62190285Y-87794095D01*
X61809333Y-83428380D02*
X61476000Y-82952190D01*
X61237904Y-83428380D02*
X61237904Y-82428380D01*
X61618857Y-82428380D01*
X61714095Y-82476000D01*
X61761714Y-82523619D01*
X61809333Y-82618857D01*
X61809333Y-82761714D01*
X61761714Y-82856952D01*
X61714095Y-82904571D01*
X61618857Y-82952190D01*
X61237904Y-82952190D01*
X62190285Y-82523619D02*
X62237904Y-82476000D01*
X62333142Y-82428380D01*
X62571238Y-82428380D01*
X62666476Y-82476000D01*
X62714095Y-82523619D01*
X62761714Y-82618857D01*
X62761714Y-82714095D01*
X62714095Y-82856952D01*
X62142666Y-83428380D01*
X62761714Y-83428380D01*
X72252380Y-82208666D02*
X71776190Y-82542000D01*
X72252380Y-82780095D02*
X71252380Y-82780095D01*
X71252380Y-82399142D01*
X71300000Y-82303904D01*
X71347619Y-82256285D01*
X71442857Y-82208666D01*
X71585714Y-82208666D01*
X71680952Y-82256285D01*
X71728571Y-82303904D01*
X71776190Y-82399142D01*
X71776190Y-82780095D01*
X71252380Y-81875333D02*
X71252380Y-81256285D01*
X71633333Y-81589619D01*
X71633333Y-81446761D01*
X71680952Y-81351523D01*
X71728571Y-81303904D01*
X71823809Y-81256285D01*
X72061904Y-81256285D01*
X72157142Y-81303904D01*
X72204761Y-81351523D01*
X72252380Y-81446761D01*
X72252380Y-81732476D01*
X72204761Y-81827714D01*
X72157142Y-81875333D01*
X61809333Y-78348380D02*
X61476000Y-77872190D01*
X61237904Y-78348380D02*
X61237904Y-77348380D01*
X61618857Y-77348380D01*
X61714095Y-77396000D01*
X61761714Y-77443619D01*
X61809333Y-77538857D01*
X61809333Y-77681714D01*
X61761714Y-77776952D01*
X61714095Y-77824571D01*
X61618857Y-77872190D01*
X61237904Y-77872190D01*
X62666476Y-77681714D02*
X62666476Y-78348380D01*
X62428380Y-77300761D02*
X62190285Y-78015047D01*
X62809333Y-78015047D01*
X67172380Y-82208666D02*
X66696190Y-82542000D01*
X67172380Y-82780095D02*
X66172380Y-82780095D01*
X66172380Y-82399142D01*
X66220000Y-82303904D01*
X66267619Y-82256285D01*
X66362857Y-82208666D01*
X66505714Y-82208666D01*
X66600952Y-82256285D01*
X66648571Y-82303904D01*
X66696190Y-82399142D01*
X66696190Y-82780095D01*
X66172380Y-81303904D02*
X66172380Y-81780095D01*
X66648571Y-81827714D01*
X66600952Y-81780095D01*
X66553333Y-81684857D01*
X66553333Y-81446761D01*
X66600952Y-81351523D01*
X66648571Y-81303904D01*
X66743809Y-81256285D01*
X66981904Y-81256285D01*
X67077142Y-81303904D01*
X67124761Y-81351523D01*
X67172380Y-81446761D01*
X67172380Y-81684857D01*
X67124761Y-81780095D01*
X67077142Y-81827714D01*
X77332380Y-82208666D02*
X76856190Y-82542000D01*
X77332380Y-82780095D02*
X76332380Y-82780095D01*
X76332380Y-82399142D01*
X76380000Y-82303904D01*
X76427619Y-82256285D01*
X76522857Y-82208666D01*
X76665714Y-82208666D01*
X76760952Y-82256285D01*
X76808571Y-82303904D01*
X76856190Y-82399142D01*
X76856190Y-82780095D01*
X76332380Y-81351523D02*
X76332380Y-81542000D01*
X76380000Y-81637238D01*
X76427619Y-81684857D01*
X76570476Y-81780095D01*
X76760952Y-81827714D01*
X77141904Y-81827714D01*
X77237142Y-81780095D01*
X77284761Y-81732476D01*
X77332380Y-81637238D01*
X77332380Y-81446761D01*
X77284761Y-81351523D01*
X77237142Y-81303904D01*
X77141904Y-81256285D01*
X76903809Y-81256285D01*
X76808571Y-81303904D01*
X76760952Y-81351523D01*
X76713333Y-81446761D01*
X76713333Y-81637238D01*
X76760952Y-81732476D01*
X76808571Y-81780095D01*
X76903809Y-81827714D01*
X70953333Y-88508380D02*
X70620000Y-88032190D01*
X70381904Y-88508380D02*
X70381904Y-87508380D01*
X70762857Y-87508380D01*
X70858095Y-87556000D01*
X70905714Y-87603619D01*
X70953333Y-87698857D01*
X70953333Y-87841714D01*
X70905714Y-87936952D01*
X70858095Y-87984571D01*
X70762857Y-88032190D01*
X70381904Y-88032190D01*
X71286666Y-87508380D02*
X71953333Y-87508380D01*
X71524761Y-88508380D01*
X78573333Y-88508380D02*
X78240000Y-88032190D01*
X78001904Y-88508380D02*
X78001904Y-87508380D01*
X78382857Y-87508380D01*
X78478095Y-87556000D01*
X78525714Y-87603619D01*
X78573333Y-87698857D01*
X78573333Y-87841714D01*
X78525714Y-87936952D01*
X78478095Y-87984571D01*
X78382857Y-88032190D01*
X78001904Y-88032190D01*
X79144761Y-87936952D02*
X79049523Y-87889333D01*
X79001904Y-87841714D01*
X78954285Y-87746476D01*
X78954285Y-87698857D01*
X79001904Y-87603619D01*
X79049523Y-87556000D01*
X79144761Y-87508380D01*
X79335238Y-87508380D01*
X79430476Y-87556000D01*
X79478095Y-87603619D01*
X79525714Y-87698857D01*
X79525714Y-87746476D01*
X79478095Y-87841714D01*
X79430476Y-87889333D01*
X79335238Y-87936952D01*
X79144761Y-87936952D01*
X79049523Y-87984571D01*
X79001904Y-88032190D01*
X78954285Y-88127428D01*
X78954285Y-88317904D01*
X79001904Y-88413142D01*
X79049523Y-88460761D01*
X79144761Y-88508380D01*
X79335238Y-88508380D01*
X79430476Y-88460761D01*
X79478095Y-88413142D01*
X79525714Y-88317904D01*
X79525714Y-88127428D01*
X79478095Y-88032190D01*
X79430476Y-87984571D01*
X79335238Y-87936952D01*
X97794380Y-73659904D02*
X98603904Y-73659904D01*
X98699142Y-73612285D01*
X98746761Y-73564666D01*
X98794380Y-73469428D01*
X98794380Y-73278952D01*
X98746761Y-73183714D01*
X98699142Y-73136095D01*
X98603904Y-73088476D01*
X97794380Y-73088476D01*
X98794380Y-72088476D02*
X98794380Y-72659904D01*
X98794380Y-72374190D02*
X97794380Y-72374190D01*
X97937238Y-72469428D01*
X98032476Y-72564666D01*
X98080095Y-72659904D01*
X62992380Y-69889523D02*
X63992380Y-69556190D01*
X62992380Y-69222857D01*
X63992380Y-68318095D02*
X63516190Y-68651428D01*
X63992380Y-68889523D02*
X62992380Y-68889523D01*
X62992380Y-68508571D01*
X63040000Y-68413333D01*
X63087619Y-68365714D01*
X63182857Y-68318095D01*
X63325714Y-68318095D01*
X63420952Y-68365714D01*
X63468571Y-68413333D01*
X63516190Y-68508571D01*
X63516190Y-68889523D01*
X63992380Y-67365714D02*
X63992380Y-67937142D01*
X63992380Y-67651428D02*
X62992380Y-67651428D01*
X63135238Y-67746666D01*
X63230476Y-67841904D01*
X63278095Y-67937142D01*
M02*
