G04 #@! TF.GenerationSoftware,KiCad,Pcbnew,(5.1.4)-1*
G04 #@! TF.CreationDate,2019-10-01T00:12:14+07:00*
G04 #@! TF.ProjectId,Microphone-PreAmp,4d696372-6f70-4686-9f6e-652d50726541,rev?*
G04 #@! TF.SameCoordinates,Original*
G04 #@! TF.FileFunction,Soldermask,Top*
G04 #@! TF.FilePolarity,Negative*
%FSLAX46Y46*%
G04 Gerber Fmt 4.6, Leading zero omitted, Abs format (unit mm)*
G04 Created by KiCad (PCBNEW (5.1.4)-1) date 2019-10-01 00:12:14*
%MOMM*%
%LPD*%
G04 APERTURE LIST*
%ADD10C,0.100000*%
G04 APERTURE END LIST*
D10*
G36*
X94577000Y-124295000D02*
G01*
X92875000Y-124295000D01*
X92875000Y-122593000D01*
X94577000Y-122593000D01*
X94577000Y-124295000D01*
X94577000Y-124295000D01*
G37*
G36*
X93974228Y-120625703D02*
G01*
X94129100Y-120689853D01*
X94268481Y-120782985D01*
X94387015Y-120901519D01*
X94480147Y-121040900D01*
X94544297Y-121195772D01*
X94577000Y-121360184D01*
X94577000Y-121527816D01*
X94544297Y-121692228D01*
X94480147Y-121847100D01*
X94387015Y-121986481D01*
X94268481Y-122105015D01*
X94129100Y-122198147D01*
X93974228Y-122262297D01*
X93809816Y-122295000D01*
X93642184Y-122295000D01*
X93477772Y-122262297D01*
X93322900Y-122198147D01*
X93183519Y-122105015D01*
X93064985Y-121986481D01*
X92971853Y-121847100D01*
X92907703Y-121692228D01*
X92875000Y-121527816D01*
X92875000Y-121360184D01*
X92907703Y-121195772D01*
X92971853Y-121040900D01*
X93064985Y-120901519D01*
X93183519Y-120782985D01*
X93322900Y-120689853D01*
X93477772Y-120625703D01*
X93642184Y-120593000D01*
X93809816Y-120593000D01*
X93974228Y-120625703D01*
X93974228Y-120625703D01*
G37*
G36*
X94577000Y-117183000D02*
G01*
X92875000Y-117183000D01*
X92875000Y-115481000D01*
X94577000Y-115481000D01*
X94577000Y-117183000D01*
X94577000Y-117183000D01*
G37*
G36*
X93974228Y-113513703D02*
G01*
X94129100Y-113577853D01*
X94268481Y-113670985D01*
X94387015Y-113789519D01*
X94480147Y-113928900D01*
X94544297Y-114083772D01*
X94577000Y-114248184D01*
X94577000Y-114415816D01*
X94544297Y-114580228D01*
X94480147Y-114735100D01*
X94387015Y-114874481D01*
X94268481Y-114993015D01*
X94129100Y-115086147D01*
X93974228Y-115150297D01*
X93809816Y-115183000D01*
X93642184Y-115183000D01*
X93477772Y-115150297D01*
X93322900Y-115086147D01*
X93183519Y-114993015D01*
X93064985Y-114874481D01*
X92971853Y-114735100D01*
X92907703Y-114580228D01*
X92875000Y-114415816D01*
X92875000Y-114248184D01*
X92907703Y-114083772D01*
X92971853Y-113928900D01*
X93064985Y-113789519D01*
X93183519Y-113670985D01*
X93322900Y-113577853D01*
X93477772Y-113513703D01*
X93642184Y-113481000D01*
X93809816Y-113481000D01*
X93974228Y-113513703D01*
X93974228Y-113513703D01*
G37*
G36*
X94577000Y-110071000D02*
G01*
X92875000Y-110071000D01*
X92875000Y-108369000D01*
X94577000Y-108369000D01*
X94577000Y-110071000D01*
X94577000Y-110071000D01*
G37*
G36*
X93974228Y-106401703D02*
G01*
X94129100Y-106465853D01*
X94268481Y-106558985D01*
X94387015Y-106677519D01*
X94480147Y-106816900D01*
X94544297Y-106971772D01*
X94577000Y-107136184D01*
X94577000Y-107303816D01*
X94544297Y-107468228D01*
X94480147Y-107623100D01*
X94387015Y-107762481D01*
X94268481Y-107881015D01*
X94129100Y-107974147D01*
X93974228Y-108038297D01*
X93809816Y-108071000D01*
X93642184Y-108071000D01*
X93477772Y-108038297D01*
X93322900Y-107974147D01*
X93183519Y-107881015D01*
X93064985Y-107762481D01*
X92971853Y-107623100D01*
X92907703Y-107468228D01*
X92875000Y-107303816D01*
X92875000Y-107136184D01*
X92907703Y-106971772D01*
X92971853Y-106816900D01*
X93064985Y-106677519D01*
X93183519Y-106558985D01*
X93322900Y-106465853D01*
X93477772Y-106401703D01*
X93642184Y-106369000D01*
X93809816Y-106369000D01*
X93974228Y-106401703D01*
X93974228Y-106401703D01*
G37*
G36*
X72576579Y-103758112D02*
G01*
X72702544Y-103783168D01*
X72849991Y-103844243D01*
X73058512Y-103930615D01*
X73058513Y-103930616D01*
X73378877Y-104144676D01*
X73651324Y-104417123D01*
X73794355Y-104631184D01*
X73865385Y-104737488D01*
X74012832Y-105093457D01*
X74088000Y-105471349D01*
X74088000Y-105856651D01*
X74012832Y-106234543D01*
X73865385Y-106590512D01*
X73865384Y-106590513D01*
X73651324Y-106910877D01*
X73378877Y-107183324D01*
X73164816Y-107326355D01*
X73058512Y-107397385D01*
X72887479Y-107468229D01*
X72702544Y-107544832D01*
X72576579Y-107569888D01*
X72324651Y-107620000D01*
X71939349Y-107620000D01*
X71687421Y-107569888D01*
X71561456Y-107544832D01*
X71376521Y-107468229D01*
X71205488Y-107397385D01*
X71099184Y-107326355D01*
X70885123Y-107183324D01*
X70612676Y-106910877D01*
X70398616Y-106590513D01*
X70398615Y-106590512D01*
X70251168Y-106234543D01*
X70176000Y-105856651D01*
X70176000Y-105471349D01*
X70251168Y-105093457D01*
X70398615Y-104737488D01*
X70469645Y-104631184D01*
X70612676Y-104417123D01*
X70885123Y-104144676D01*
X71205487Y-103930616D01*
X71205488Y-103930615D01*
X71414009Y-103844243D01*
X71561456Y-103783168D01*
X71687421Y-103758112D01*
X71939349Y-103708000D01*
X72324651Y-103708000D01*
X72576579Y-103758112D01*
X72576579Y-103758112D01*
G37*
G36*
X94577000Y-102705000D02*
G01*
X92875000Y-102705000D01*
X92875000Y-101003000D01*
X94577000Y-101003000D01*
X94577000Y-102705000D01*
X94577000Y-102705000D01*
G37*
G36*
X68307540Y-99156523D02*
G01*
X68493783Y-99193569D01*
X68756938Y-99302571D01*
X68993772Y-99460818D01*
X69195182Y-99662228D01*
X69353429Y-99899062D01*
X69462431Y-100162217D01*
X69518000Y-100441581D01*
X69518000Y-100726419D01*
X69462431Y-101005783D01*
X69353429Y-101268938D01*
X69195182Y-101505772D01*
X68993772Y-101707182D01*
X68756938Y-101865429D01*
X68493783Y-101974431D01*
X68307540Y-102011477D01*
X68214420Y-102030000D01*
X67929580Y-102030000D01*
X67836460Y-102011477D01*
X67650217Y-101974431D01*
X67387062Y-101865429D01*
X67150228Y-101707182D01*
X66948818Y-101505772D01*
X66790571Y-101268938D01*
X66681569Y-101005783D01*
X66626000Y-100726419D01*
X66626000Y-100441581D01*
X66681569Y-100162217D01*
X66790571Y-99899062D01*
X66948818Y-99662228D01*
X67150228Y-99460818D01*
X67387062Y-99302571D01*
X67650217Y-99193569D01*
X67836460Y-99156523D01*
X67929580Y-99138000D01*
X68214420Y-99138000D01*
X68307540Y-99156523D01*
X68307540Y-99156523D01*
G37*
G36*
X72367540Y-99156523D02*
G01*
X72553783Y-99193569D01*
X72816938Y-99302571D01*
X73053772Y-99460818D01*
X73255182Y-99662228D01*
X73413429Y-99899062D01*
X73522431Y-100162217D01*
X73578000Y-100441581D01*
X73578000Y-100726419D01*
X73522431Y-101005783D01*
X73413429Y-101268938D01*
X73255182Y-101505772D01*
X73053772Y-101707182D01*
X72816938Y-101865429D01*
X72553783Y-101974431D01*
X72367540Y-102011477D01*
X72274420Y-102030000D01*
X71989580Y-102030000D01*
X71896460Y-102011477D01*
X71710217Y-101974431D01*
X71447062Y-101865429D01*
X71210228Y-101707182D01*
X71008818Y-101505772D01*
X70850571Y-101268938D01*
X70741569Y-101005783D01*
X70686000Y-100726419D01*
X70686000Y-100441581D01*
X70741569Y-100162217D01*
X70850571Y-99899062D01*
X71008818Y-99662228D01*
X71210228Y-99460818D01*
X71447062Y-99302571D01*
X71710217Y-99193569D01*
X71896460Y-99156523D01*
X71989580Y-99138000D01*
X72274420Y-99138000D01*
X72367540Y-99156523D01*
X72367540Y-99156523D01*
G37*
G36*
X76437540Y-99156523D02*
G01*
X76623783Y-99193569D01*
X76886938Y-99302571D01*
X77123772Y-99460818D01*
X77325182Y-99662228D01*
X77483429Y-99899062D01*
X77592431Y-100162217D01*
X77648000Y-100441581D01*
X77648000Y-100726419D01*
X77592431Y-101005783D01*
X77483429Y-101268938D01*
X77325182Y-101505772D01*
X77123772Y-101707182D01*
X76886938Y-101865429D01*
X76623783Y-101974431D01*
X76437540Y-102011477D01*
X76344420Y-102030000D01*
X76059580Y-102030000D01*
X75966460Y-102011477D01*
X75780217Y-101974431D01*
X75517062Y-101865429D01*
X75280228Y-101707182D01*
X75078818Y-101505772D01*
X74920571Y-101268938D01*
X74811569Y-101005783D01*
X74756000Y-100726419D01*
X74756000Y-100441581D01*
X74811569Y-100162217D01*
X74920571Y-99899062D01*
X75078818Y-99662228D01*
X75280228Y-99460818D01*
X75517062Y-99302571D01*
X75780217Y-99193569D01*
X75966460Y-99156523D01*
X76059580Y-99138000D01*
X76344420Y-99138000D01*
X76437540Y-99156523D01*
X76437540Y-99156523D01*
G37*
G36*
X93974228Y-99035703D02*
G01*
X94129100Y-99099853D01*
X94268481Y-99192985D01*
X94387015Y-99311519D01*
X94480147Y-99450900D01*
X94544297Y-99605772D01*
X94577000Y-99770184D01*
X94577000Y-99937816D01*
X94544297Y-100102228D01*
X94480147Y-100257100D01*
X94387015Y-100396481D01*
X94268481Y-100515015D01*
X94129100Y-100608147D01*
X93974228Y-100672297D01*
X93809816Y-100705000D01*
X93642184Y-100705000D01*
X93477772Y-100672297D01*
X93322900Y-100608147D01*
X93183519Y-100515015D01*
X93064985Y-100396481D01*
X92971853Y-100257100D01*
X92907703Y-100102228D01*
X92875000Y-99937816D01*
X92875000Y-99770184D01*
X92907703Y-99605772D01*
X92971853Y-99450900D01*
X93064985Y-99311519D01*
X93183519Y-99192985D01*
X93322900Y-99099853D01*
X93477772Y-99035703D01*
X93642184Y-99003000D01*
X93809816Y-99003000D01*
X93974228Y-99035703D01*
X93974228Y-99035703D01*
G37*
G36*
X72389715Y-94208383D02*
G01*
X72517322Y-94233765D01*
X72658148Y-94292097D01*
X72757727Y-94333344D01*
X72757728Y-94333345D01*
X72974089Y-94477912D01*
X73158088Y-94661911D01*
X73254685Y-94806479D01*
X73302656Y-94878273D01*
X73343903Y-94977852D01*
X73402235Y-95118678D01*
X73402235Y-95118680D01*
X73446060Y-95339000D01*
X73453000Y-95373893D01*
X73453000Y-95634107D01*
X73402235Y-95889322D01*
X73343903Y-96030148D01*
X73302656Y-96129727D01*
X73302655Y-96129728D01*
X73158088Y-96346089D01*
X72974089Y-96530088D01*
X72829521Y-96626685D01*
X72757727Y-96674656D01*
X72658148Y-96715903D01*
X72517322Y-96774235D01*
X72389715Y-96799617D01*
X72262109Y-96825000D01*
X72001891Y-96825000D01*
X71874285Y-96799617D01*
X71746678Y-96774235D01*
X71605852Y-96715903D01*
X71506273Y-96674656D01*
X71434479Y-96626685D01*
X71289911Y-96530088D01*
X71105912Y-96346089D01*
X70961345Y-96129728D01*
X70961344Y-96129727D01*
X70920097Y-96030148D01*
X70861765Y-95889322D01*
X70811000Y-95634107D01*
X70811000Y-95373893D01*
X70817941Y-95339000D01*
X70861765Y-95118680D01*
X70861765Y-95118678D01*
X70920097Y-94977852D01*
X70961344Y-94878273D01*
X71009315Y-94806479D01*
X71105912Y-94661911D01*
X71289911Y-94477912D01*
X71506272Y-94333345D01*
X71506273Y-94333344D01*
X71605852Y-94292097D01*
X71746678Y-94233765D01*
X71874285Y-94208383D01*
X72001891Y-94183000D01*
X72262109Y-94183000D01*
X72389715Y-94208383D01*
X72389715Y-94208383D01*
G37*
G36*
X94577000Y-95339000D02*
G01*
X92875000Y-95339000D01*
X92875000Y-93637000D01*
X94577000Y-93637000D01*
X94577000Y-95339000D01*
X94577000Y-95339000D01*
G37*
G36*
X93974228Y-91669703D02*
G01*
X94129100Y-91733853D01*
X94268481Y-91826985D01*
X94387015Y-91945519D01*
X94480147Y-92084900D01*
X94544297Y-92239772D01*
X94577000Y-92404184D01*
X94577000Y-92571816D01*
X94544297Y-92736228D01*
X94480147Y-92891100D01*
X94387015Y-93030481D01*
X94268481Y-93149015D01*
X94129100Y-93242147D01*
X93974228Y-93306297D01*
X93809816Y-93339000D01*
X93642184Y-93339000D01*
X93477772Y-93306297D01*
X93322900Y-93242147D01*
X93183519Y-93149015D01*
X93064985Y-93030481D01*
X92971853Y-92891100D01*
X92907703Y-92736228D01*
X92875000Y-92571816D01*
X92875000Y-92404184D01*
X92907703Y-92239772D01*
X92971853Y-92084900D01*
X93064985Y-91945519D01*
X93183519Y-91826985D01*
X93322900Y-91733853D01*
X93477772Y-91669703D01*
X93642184Y-91637000D01*
X93809816Y-91637000D01*
X93974228Y-91669703D01*
X93974228Y-91669703D01*
G37*
G36*
X59655059Y-89193860D02*
G01*
X59715294Y-89218810D01*
X59791732Y-89250472D01*
X59914735Y-89332660D01*
X60019340Y-89437265D01*
X60101528Y-89560268D01*
X60158140Y-89696941D01*
X60187000Y-89842033D01*
X60187000Y-89989967D01*
X60158140Y-90135059D01*
X60101528Y-90271732D01*
X60019340Y-90394735D01*
X59914735Y-90499340D01*
X59791732Y-90581528D01*
X59791731Y-90581529D01*
X59791730Y-90581529D01*
X59655059Y-90638140D01*
X59509968Y-90667000D01*
X59362032Y-90667000D01*
X59216941Y-90638140D01*
X59080270Y-90581529D01*
X59080269Y-90581529D01*
X59080268Y-90581528D01*
X58957265Y-90499340D01*
X58852660Y-90394735D01*
X58770472Y-90271732D01*
X58713860Y-90135059D01*
X58685000Y-89989967D01*
X58685000Y-89842033D01*
X58713860Y-89696941D01*
X58770472Y-89560268D01*
X58852660Y-89437265D01*
X58957265Y-89332660D01*
X59080268Y-89250472D01*
X59156707Y-89218810D01*
X59216941Y-89193860D01*
X59362032Y-89165000D01*
X59509968Y-89165000D01*
X59655059Y-89193860D01*
X59655059Y-89193860D01*
G37*
G36*
X64589665Y-89168622D02*
G01*
X64663222Y-89175867D01*
X64804786Y-89218810D01*
X64935252Y-89288546D01*
X64965040Y-89312992D01*
X65049607Y-89382393D01*
X65119008Y-89466960D01*
X65143454Y-89496748D01*
X65213190Y-89627214D01*
X65256133Y-89768778D01*
X65270633Y-89916000D01*
X65256133Y-90063222D01*
X65213190Y-90204786D01*
X65143454Y-90335252D01*
X65119008Y-90365040D01*
X65049607Y-90449607D01*
X64989004Y-90499341D01*
X64935252Y-90543454D01*
X64804786Y-90613190D01*
X64663222Y-90656133D01*
X64589665Y-90663378D01*
X64552888Y-90667000D01*
X64479112Y-90667000D01*
X64442335Y-90663378D01*
X64368778Y-90656133D01*
X64227214Y-90613190D01*
X64096748Y-90543454D01*
X64042996Y-90499341D01*
X63982393Y-90449607D01*
X63912992Y-90365040D01*
X63888546Y-90335252D01*
X63818810Y-90204786D01*
X63775867Y-90063222D01*
X63761367Y-89916000D01*
X63775867Y-89768778D01*
X63818810Y-89627214D01*
X63888546Y-89496748D01*
X63912992Y-89466960D01*
X63982393Y-89382393D01*
X64066960Y-89312992D01*
X64096748Y-89288546D01*
X64227214Y-89218810D01*
X64368778Y-89175867D01*
X64442335Y-89168622D01*
X64479112Y-89165000D01*
X64552888Y-89165000D01*
X64589665Y-89168622D01*
X64589665Y-89168622D01*
G37*
G36*
X68799059Y-89193860D02*
G01*
X68859294Y-89218810D01*
X68935732Y-89250472D01*
X69058735Y-89332660D01*
X69163340Y-89437265D01*
X69245528Y-89560268D01*
X69302140Y-89696941D01*
X69331000Y-89842033D01*
X69331000Y-89989967D01*
X69302140Y-90135059D01*
X69245528Y-90271732D01*
X69163340Y-90394735D01*
X69058735Y-90499340D01*
X68935732Y-90581528D01*
X68935731Y-90581529D01*
X68935730Y-90581529D01*
X68799059Y-90638140D01*
X68653968Y-90667000D01*
X68506032Y-90667000D01*
X68360941Y-90638140D01*
X68224270Y-90581529D01*
X68224269Y-90581529D01*
X68224268Y-90581528D01*
X68101265Y-90499340D01*
X67996660Y-90394735D01*
X67914472Y-90271732D01*
X67857860Y-90135059D01*
X67829000Y-89989967D01*
X67829000Y-89842033D01*
X67857860Y-89696941D01*
X67914472Y-89560268D01*
X67996660Y-89437265D01*
X68101265Y-89332660D01*
X68224268Y-89250472D01*
X68300707Y-89218810D01*
X68360941Y-89193860D01*
X68506032Y-89165000D01*
X68653968Y-89165000D01*
X68799059Y-89193860D01*
X68799059Y-89193860D01*
G37*
G36*
X73733665Y-89168622D02*
G01*
X73807222Y-89175867D01*
X73948786Y-89218810D01*
X74079252Y-89288546D01*
X74109040Y-89312992D01*
X74193607Y-89382393D01*
X74263008Y-89466960D01*
X74287454Y-89496748D01*
X74357190Y-89627214D01*
X74400133Y-89768778D01*
X74414633Y-89916000D01*
X74400133Y-90063222D01*
X74357190Y-90204786D01*
X74287454Y-90335252D01*
X74263008Y-90365040D01*
X74193607Y-90449607D01*
X74133004Y-90499341D01*
X74079252Y-90543454D01*
X73948786Y-90613190D01*
X73807222Y-90656133D01*
X73733665Y-90663378D01*
X73696888Y-90667000D01*
X73623112Y-90667000D01*
X73586335Y-90663378D01*
X73512778Y-90656133D01*
X73371214Y-90613190D01*
X73240748Y-90543454D01*
X73186996Y-90499341D01*
X73126393Y-90449607D01*
X73056992Y-90365040D01*
X73032546Y-90335252D01*
X72962810Y-90204786D01*
X72919867Y-90063222D01*
X72905367Y-89916000D01*
X72919867Y-89768778D01*
X72962810Y-89627214D01*
X73032546Y-89496748D01*
X73056992Y-89466960D01*
X73126393Y-89382393D01*
X73210960Y-89312992D01*
X73240748Y-89288546D01*
X73371214Y-89218810D01*
X73512778Y-89175867D01*
X73586335Y-89168622D01*
X73623112Y-89165000D01*
X73696888Y-89165000D01*
X73733665Y-89168622D01*
X73733665Y-89168622D01*
G37*
G36*
X81353665Y-89168622D02*
G01*
X81427222Y-89175867D01*
X81568786Y-89218810D01*
X81699252Y-89288546D01*
X81729040Y-89312992D01*
X81813607Y-89382393D01*
X81883008Y-89466960D01*
X81907454Y-89496748D01*
X81977190Y-89627214D01*
X82020133Y-89768778D01*
X82034633Y-89916000D01*
X82020133Y-90063222D01*
X81977190Y-90204786D01*
X81907454Y-90335252D01*
X81883008Y-90365040D01*
X81813607Y-90449607D01*
X81753004Y-90499341D01*
X81699252Y-90543454D01*
X81568786Y-90613190D01*
X81427222Y-90656133D01*
X81353665Y-90663378D01*
X81316888Y-90667000D01*
X81243112Y-90667000D01*
X81206335Y-90663378D01*
X81132778Y-90656133D01*
X80991214Y-90613190D01*
X80860748Y-90543454D01*
X80806996Y-90499341D01*
X80746393Y-90449607D01*
X80676992Y-90365040D01*
X80652546Y-90335252D01*
X80582810Y-90204786D01*
X80539867Y-90063222D01*
X80525367Y-89916000D01*
X80539867Y-89768778D01*
X80582810Y-89627214D01*
X80652546Y-89496748D01*
X80676992Y-89466960D01*
X80746393Y-89382393D01*
X80830960Y-89312992D01*
X80860748Y-89288546D01*
X80991214Y-89218810D01*
X81132778Y-89175867D01*
X81206335Y-89168622D01*
X81243112Y-89165000D01*
X81316888Y-89165000D01*
X81353665Y-89168622D01*
X81353665Y-89168622D01*
G37*
G36*
X76419059Y-89193860D02*
G01*
X76479294Y-89218810D01*
X76555732Y-89250472D01*
X76678735Y-89332660D01*
X76783340Y-89437265D01*
X76865528Y-89560268D01*
X76922140Y-89696941D01*
X76951000Y-89842033D01*
X76951000Y-89989967D01*
X76922140Y-90135059D01*
X76865528Y-90271732D01*
X76783340Y-90394735D01*
X76678735Y-90499340D01*
X76555732Y-90581528D01*
X76555731Y-90581529D01*
X76555730Y-90581529D01*
X76419059Y-90638140D01*
X76273968Y-90667000D01*
X76126032Y-90667000D01*
X75980941Y-90638140D01*
X75844270Y-90581529D01*
X75844269Y-90581529D01*
X75844268Y-90581528D01*
X75721265Y-90499340D01*
X75616660Y-90394735D01*
X75534472Y-90271732D01*
X75477860Y-90135059D01*
X75449000Y-89989967D01*
X75449000Y-89842033D01*
X75477860Y-89696941D01*
X75534472Y-89560268D01*
X75616660Y-89437265D01*
X75721265Y-89332660D01*
X75844268Y-89250472D01*
X75920707Y-89218810D01*
X75980941Y-89193860D01*
X76126032Y-89165000D01*
X76273968Y-89165000D01*
X76419059Y-89193860D01*
X76419059Y-89193860D01*
G37*
G36*
X59655059Y-84113860D02*
G01*
X59715294Y-84138810D01*
X59791732Y-84170472D01*
X59914735Y-84252660D01*
X60019340Y-84357265D01*
X60101528Y-84480268D01*
X60158140Y-84616941D01*
X60187000Y-84762033D01*
X60187000Y-84909967D01*
X60158140Y-85055059D01*
X60101528Y-85191732D01*
X60019340Y-85314735D01*
X59914735Y-85419340D01*
X59791732Y-85501528D01*
X59791731Y-85501529D01*
X59791730Y-85501529D01*
X59655059Y-85558140D01*
X59509968Y-85587000D01*
X59362032Y-85587000D01*
X59216941Y-85558140D01*
X59080270Y-85501529D01*
X59080269Y-85501529D01*
X59080268Y-85501528D01*
X58957265Y-85419340D01*
X58852660Y-85314735D01*
X58770472Y-85191732D01*
X58713860Y-85055059D01*
X58685000Y-84909967D01*
X58685000Y-84762033D01*
X58713860Y-84616941D01*
X58770472Y-84480268D01*
X58852660Y-84357265D01*
X58957265Y-84252660D01*
X59080268Y-84170472D01*
X59156707Y-84138810D01*
X59216941Y-84113860D01*
X59362032Y-84085000D01*
X59509968Y-84085000D01*
X59655059Y-84113860D01*
X59655059Y-84113860D01*
G37*
G36*
X64589665Y-84088622D02*
G01*
X64663222Y-84095867D01*
X64804786Y-84138810D01*
X64935252Y-84208546D01*
X64956846Y-84226268D01*
X65049607Y-84302393D01*
X65099296Y-84362941D01*
X65143454Y-84416748D01*
X65213190Y-84547214D01*
X65256133Y-84688778D01*
X65270633Y-84836000D01*
X65256133Y-84983222D01*
X65213190Y-85124786D01*
X65143454Y-85255252D01*
X65119008Y-85285040D01*
X65049607Y-85369607D01*
X64989004Y-85419341D01*
X64935252Y-85463454D01*
X64804786Y-85533190D01*
X64663222Y-85576133D01*
X64589665Y-85583378D01*
X64552888Y-85587000D01*
X64479112Y-85587000D01*
X64442335Y-85583378D01*
X64368778Y-85576133D01*
X64227214Y-85533190D01*
X64096748Y-85463454D01*
X64042996Y-85419341D01*
X63982393Y-85369607D01*
X63912992Y-85285040D01*
X63888546Y-85255252D01*
X63818810Y-85124786D01*
X63775867Y-84983222D01*
X63761367Y-84836000D01*
X63775867Y-84688778D01*
X63818810Y-84547214D01*
X63888546Y-84416748D01*
X63932704Y-84362941D01*
X63982393Y-84302393D01*
X64075154Y-84226268D01*
X64096748Y-84208546D01*
X64227214Y-84138810D01*
X64368778Y-84095867D01*
X64442335Y-84088622D01*
X64479112Y-84085000D01*
X64552888Y-84085000D01*
X64589665Y-84088622D01*
X64589665Y-84088622D01*
G37*
G36*
X78959059Y-83859860D02*
G01*
X79095732Y-83916472D01*
X79218735Y-83998660D01*
X79323340Y-84103265D01*
X79405528Y-84226268D01*
X79462140Y-84362941D01*
X79491000Y-84508033D01*
X79491000Y-84655967D01*
X79462140Y-84801059D01*
X79405528Y-84937732D01*
X79323340Y-85060735D01*
X79218735Y-85165340D01*
X79095732Y-85247528D01*
X79095731Y-85247529D01*
X79095730Y-85247529D01*
X78959059Y-85304140D01*
X78813968Y-85333000D01*
X78666032Y-85333000D01*
X78520941Y-85304140D01*
X78384270Y-85247529D01*
X78384269Y-85247529D01*
X78384268Y-85247528D01*
X78261265Y-85165340D01*
X78156660Y-85060735D01*
X78074472Y-84937732D01*
X78017860Y-84801059D01*
X77989000Y-84655967D01*
X77989000Y-84508033D01*
X78017860Y-84362941D01*
X78074472Y-84226268D01*
X78156660Y-84103265D01*
X78261265Y-83998660D01*
X78384268Y-83916472D01*
X78520941Y-83859860D01*
X78666032Y-83831000D01*
X78813968Y-83831000D01*
X78959059Y-83859860D01*
X78959059Y-83859860D01*
G37*
G36*
X73879059Y-83859860D02*
G01*
X74015732Y-83916472D01*
X74138735Y-83998660D01*
X74243340Y-84103265D01*
X74325528Y-84226268D01*
X74382140Y-84362941D01*
X74411000Y-84508033D01*
X74411000Y-84655967D01*
X74382140Y-84801059D01*
X74325528Y-84937732D01*
X74243340Y-85060735D01*
X74138735Y-85165340D01*
X74015732Y-85247528D01*
X74015731Y-85247529D01*
X74015730Y-85247529D01*
X73879059Y-85304140D01*
X73733968Y-85333000D01*
X73586032Y-85333000D01*
X73440941Y-85304140D01*
X73304270Y-85247529D01*
X73304269Y-85247529D01*
X73304268Y-85247528D01*
X73181265Y-85165340D01*
X73076660Y-85060735D01*
X72994472Y-84937732D01*
X72937860Y-84801059D01*
X72909000Y-84655967D01*
X72909000Y-84508033D01*
X72937860Y-84362941D01*
X72994472Y-84226268D01*
X73076660Y-84103265D01*
X73181265Y-83998660D01*
X73304268Y-83916472D01*
X73440941Y-83859860D01*
X73586032Y-83831000D01*
X73733968Y-83831000D01*
X73879059Y-83859860D01*
X73879059Y-83859860D01*
G37*
G36*
X68799059Y-83859860D02*
G01*
X68935732Y-83916472D01*
X69058735Y-83998660D01*
X69163340Y-84103265D01*
X69245528Y-84226268D01*
X69302140Y-84362941D01*
X69331000Y-84508033D01*
X69331000Y-84655967D01*
X69302140Y-84801059D01*
X69245528Y-84937732D01*
X69163340Y-85060735D01*
X69058735Y-85165340D01*
X68935732Y-85247528D01*
X68935731Y-85247529D01*
X68935730Y-85247529D01*
X68799059Y-85304140D01*
X68653968Y-85333000D01*
X68506032Y-85333000D01*
X68360941Y-85304140D01*
X68224270Y-85247529D01*
X68224269Y-85247529D01*
X68224268Y-85247528D01*
X68101265Y-85165340D01*
X67996660Y-85060735D01*
X67914472Y-84937732D01*
X67857860Y-84801059D01*
X67829000Y-84655967D01*
X67829000Y-84508033D01*
X67857860Y-84362941D01*
X67914472Y-84226268D01*
X67996660Y-84103265D01*
X68101265Y-83998660D01*
X68224268Y-83916472D01*
X68360941Y-83859860D01*
X68506032Y-83831000D01*
X68653968Y-83831000D01*
X68799059Y-83859860D01*
X68799059Y-83859860D01*
G37*
G36*
X59655059Y-79033860D02*
G01*
X59715294Y-79058810D01*
X59791732Y-79090472D01*
X59914735Y-79172660D01*
X60019340Y-79277265D01*
X60101528Y-79400268D01*
X60158140Y-79536941D01*
X60187000Y-79682033D01*
X60187000Y-79829967D01*
X60158140Y-79975059D01*
X60101528Y-80111732D01*
X60019340Y-80234735D01*
X59914735Y-80339340D01*
X59791732Y-80421528D01*
X59791731Y-80421529D01*
X59791730Y-80421529D01*
X59655059Y-80478140D01*
X59509968Y-80507000D01*
X59362032Y-80507000D01*
X59216941Y-80478140D01*
X59080270Y-80421529D01*
X59080269Y-80421529D01*
X59080268Y-80421528D01*
X58957265Y-80339340D01*
X58852660Y-80234735D01*
X58770472Y-80111732D01*
X58713860Y-79975059D01*
X58685000Y-79829967D01*
X58685000Y-79682033D01*
X58713860Y-79536941D01*
X58770472Y-79400268D01*
X58852660Y-79277265D01*
X58957265Y-79172660D01*
X59080268Y-79090472D01*
X59156707Y-79058810D01*
X59216941Y-79033860D01*
X59362032Y-79005000D01*
X59509968Y-79005000D01*
X59655059Y-79033860D01*
X59655059Y-79033860D01*
G37*
G36*
X64589665Y-79008622D02*
G01*
X64663222Y-79015867D01*
X64804786Y-79058810D01*
X64935252Y-79128546D01*
X64965040Y-79152992D01*
X65049607Y-79222393D01*
X65119008Y-79306960D01*
X65143454Y-79336748D01*
X65213190Y-79467214D01*
X65256133Y-79608778D01*
X65270633Y-79756000D01*
X65256133Y-79903222D01*
X65213190Y-80044786D01*
X65143454Y-80175252D01*
X65119008Y-80205040D01*
X65049607Y-80289607D01*
X64989004Y-80339341D01*
X64935252Y-80383454D01*
X64804786Y-80453190D01*
X64663222Y-80496133D01*
X64589665Y-80503378D01*
X64552888Y-80507000D01*
X64479112Y-80507000D01*
X64442335Y-80503378D01*
X64368778Y-80496133D01*
X64227214Y-80453190D01*
X64096748Y-80383454D01*
X64042996Y-80339341D01*
X63982393Y-80289607D01*
X63912992Y-80205040D01*
X63888546Y-80175252D01*
X63818810Y-80044786D01*
X63775867Y-79903222D01*
X63761367Y-79756000D01*
X63775867Y-79608778D01*
X63818810Y-79467214D01*
X63888546Y-79336748D01*
X63912992Y-79306960D01*
X63982393Y-79222393D01*
X64066960Y-79152992D01*
X64096748Y-79128546D01*
X64227214Y-79058810D01*
X64368778Y-79015867D01*
X64442335Y-79008622D01*
X64479112Y-79005000D01*
X64552888Y-79005000D01*
X64589665Y-79008622D01*
X64589665Y-79008622D01*
G37*
G36*
X68653665Y-78754622D02*
G01*
X68727222Y-78761867D01*
X68868786Y-78804810D01*
X68999252Y-78874546D01*
X69029040Y-78898992D01*
X69113607Y-78968393D01*
X69167333Y-79033860D01*
X69207454Y-79082748D01*
X69277190Y-79213214D01*
X69320133Y-79354778D01*
X69334633Y-79502000D01*
X69320133Y-79649222D01*
X69277190Y-79790786D01*
X69207454Y-79921252D01*
X69183008Y-79951040D01*
X69113607Y-80035607D01*
X69029040Y-80105008D01*
X68999252Y-80129454D01*
X68868786Y-80199190D01*
X68727222Y-80242133D01*
X68653665Y-80249378D01*
X68616888Y-80253000D01*
X68543112Y-80253000D01*
X68506335Y-80249378D01*
X68432778Y-80242133D01*
X68291214Y-80199190D01*
X68160748Y-80129454D01*
X68130960Y-80105008D01*
X68046393Y-80035607D01*
X67976992Y-79951040D01*
X67952546Y-79921252D01*
X67882810Y-79790786D01*
X67839867Y-79649222D01*
X67825367Y-79502000D01*
X67839867Y-79354778D01*
X67882810Y-79213214D01*
X67952546Y-79082748D01*
X67992667Y-79033860D01*
X68046393Y-78968393D01*
X68130960Y-78898992D01*
X68160748Y-78874546D01*
X68291214Y-78804810D01*
X68432778Y-78761867D01*
X68506335Y-78754622D01*
X68543112Y-78751000D01*
X68616888Y-78751000D01*
X68653665Y-78754622D01*
X68653665Y-78754622D01*
G37*
G36*
X78813665Y-78754622D02*
G01*
X78887222Y-78761867D01*
X79028786Y-78804810D01*
X79159252Y-78874546D01*
X79189040Y-78898992D01*
X79273607Y-78968393D01*
X79327333Y-79033860D01*
X79367454Y-79082748D01*
X79437190Y-79213214D01*
X79480133Y-79354778D01*
X79494633Y-79502000D01*
X79480133Y-79649222D01*
X79437190Y-79790786D01*
X79367454Y-79921252D01*
X79343008Y-79951040D01*
X79273607Y-80035607D01*
X79189040Y-80105008D01*
X79159252Y-80129454D01*
X79028786Y-80199190D01*
X78887222Y-80242133D01*
X78813665Y-80249378D01*
X78776888Y-80253000D01*
X78703112Y-80253000D01*
X78666335Y-80249378D01*
X78592778Y-80242133D01*
X78451214Y-80199190D01*
X78320748Y-80129454D01*
X78290960Y-80105008D01*
X78206393Y-80035607D01*
X78136992Y-79951040D01*
X78112546Y-79921252D01*
X78042810Y-79790786D01*
X77999867Y-79649222D01*
X77985367Y-79502000D01*
X77999867Y-79354778D01*
X78042810Y-79213214D01*
X78112546Y-79082748D01*
X78152667Y-79033860D01*
X78206393Y-78968393D01*
X78290960Y-78898992D01*
X78320748Y-78874546D01*
X78451214Y-78804810D01*
X78592778Y-78761867D01*
X78666335Y-78754622D01*
X78703112Y-78751000D01*
X78776888Y-78751000D01*
X78813665Y-78754622D01*
X78813665Y-78754622D01*
G37*
G36*
X73733665Y-78754622D02*
G01*
X73807222Y-78761867D01*
X73948786Y-78804810D01*
X74079252Y-78874546D01*
X74109040Y-78898992D01*
X74193607Y-78968393D01*
X74247333Y-79033860D01*
X74287454Y-79082748D01*
X74357190Y-79213214D01*
X74400133Y-79354778D01*
X74414633Y-79502000D01*
X74400133Y-79649222D01*
X74357190Y-79790786D01*
X74287454Y-79921252D01*
X74263008Y-79951040D01*
X74193607Y-80035607D01*
X74109040Y-80105008D01*
X74079252Y-80129454D01*
X73948786Y-80199190D01*
X73807222Y-80242133D01*
X73733665Y-80249378D01*
X73696888Y-80253000D01*
X73623112Y-80253000D01*
X73586335Y-80249378D01*
X73512778Y-80242133D01*
X73371214Y-80199190D01*
X73240748Y-80129454D01*
X73210960Y-80105008D01*
X73126393Y-80035607D01*
X73056992Y-79951040D01*
X73032546Y-79921252D01*
X72962810Y-79790786D01*
X72919867Y-79649222D01*
X72905367Y-79502000D01*
X72919867Y-79354778D01*
X72962810Y-79213214D01*
X73032546Y-79082748D01*
X73072667Y-79033860D01*
X73126393Y-78968393D01*
X73210960Y-78898992D01*
X73240748Y-78874546D01*
X73371214Y-78804810D01*
X73512778Y-78761867D01*
X73586335Y-78754622D01*
X73623112Y-78751000D01*
X73696888Y-78751000D01*
X73733665Y-78754622D01*
X73733665Y-78754622D01*
G37*
G36*
X96178823Y-75869313D02*
G01*
X96339242Y-75917976D01*
X96471906Y-75988886D01*
X96487078Y-75996996D01*
X96616659Y-76103341D01*
X96723004Y-76232922D01*
X96723005Y-76232924D01*
X96802024Y-76380758D01*
X96850687Y-76541177D01*
X96867117Y-76708000D01*
X96850687Y-76874823D01*
X96802024Y-77035242D01*
X96731114Y-77167906D01*
X96723004Y-77183078D01*
X96616659Y-77312659D01*
X96487078Y-77419004D01*
X96487076Y-77419005D01*
X96339242Y-77498024D01*
X96178823Y-77546687D01*
X96053804Y-77559000D01*
X95970196Y-77559000D01*
X95845177Y-77546687D01*
X95684758Y-77498024D01*
X95536924Y-77419005D01*
X95536922Y-77419004D01*
X95407341Y-77312659D01*
X95300996Y-77183078D01*
X95292886Y-77167906D01*
X95221976Y-77035242D01*
X95173313Y-76874823D01*
X95156883Y-76708000D01*
X95173313Y-76541177D01*
X95221976Y-76380758D01*
X95300995Y-76232924D01*
X95300996Y-76232922D01*
X95407341Y-76103341D01*
X95536922Y-75996996D01*
X95552094Y-75988886D01*
X95684758Y-75917976D01*
X95845177Y-75869313D01*
X95970196Y-75857000D01*
X96053804Y-75857000D01*
X96178823Y-75869313D01*
X96178823Y-75869313D01*
G37*
G36*
X93638823Y-75869313D02*
G01*
X93799242Y-75917976D01*
X93931906Y-75988886D01*
X93947078Y-75996996D01*
X94076659Y-76103341D01*
X94183004Y-76232922D01*
X94183005Y-76232924D01*
X94262024Y-76380758D01*
X94310687Y-76541177D01*
X94327117Y-76708000D01*
X94310687Y-76874823D01*
X94262024Y-77035242D01*
X94191114Y-77167906D01*
X94183004Y-77183078D01*
X94076659Y-77312659D01*
X93947078Y-77419004D01*
X93947076Y-77419005D01*
X93799242Y-77498024D01*
X93638823Y-77546687D01*
X93513804Y-77559000D01*
X93430196Y-77559000D01*
X93305177Y-77546687D01*
X93144758Y-77498024D01*
X92996924Y-77419005D01*
X92996922Y-77419004D01*
X92867341Y-77312659D01*
X92760996Y-77183078D01*
X92752886Y-77167906D01*
X92681976Y-77035242D01*
X92633313Y-76874823D01*
X92616883Y-76708000D01*
X92633313Y-76541177D01*
X92681976Y-76380758D01*
X92760995Y-76232924D01*
X92760996Y-76232922D01*
X92867341Y-76103341D01*
X92996922Y-75996996D01*
X93012094Y-75988886D01*
X93144758Y-75917976D01*
X93305177Y-75869313D01*
X93430196Y-75857000D01*
X93513804Y-75857000D01*
X93638823Y-75869313D01*
X93638823Y-75869313D01*
G37*
G36*
X91098823Y-75869313D02*
G01*
X91259242Y-75917976D01*
X91391906Y-75988886D01*
X91407078Y-75996996D01*
X91536659Y-76103341D01*
X91643004Y-76232922D01*
X91643005Y-76232924D01*
X91722024Y-76380758D01*
X91770687Y-76541177D01*
X91787117Y-76708000D01*
X91770687Y-76874823D01*
X91722024Y-77035242D01*
X91651114Y-77167906D01*
X91643004Y-77183078D01*
X91536659Y-77312659D01*
X91407078Y-77419004D01*
X91407076Y-77419005D01*
X91259242Y-77498024D01*
X91098823Y-77546687D01*
X90973804Y-77559000D01*
X90890196Y-77559000D01*
X90765177Y-77546687D01*
X90604758Y-77498024D01*
X90456924Y-77419005D01*
X90456922Y-77419004D01*
X90327341Y-77312659D01*
X90220996Y-77183078D01*
X90212886Y-77167906D01*
X90141976Y-77035242D01*
X90093313Y-76874823D01*
X90076883Y-76708000D01*
X90093313Y-76541177D01*
X90141976Y-76380758D01*
X90220995Y-76232924D01*
X90220996Y-76232922D01*
X90327341Y-76103341D01*
X90456922Y-75996996D01*
X90472094Y-75988886D01*
X90604758Y-75917976D01*
X90765177Y-75869313D01*
X90890196Y-75857000D01*
X90973804Y-75857000D01*
X91098823Y-75869313D01*
X91098823Y-75869313D01*
G37*
G36*
X88558823Y-75869313D02*
G01*
X88719242Y-75917976D01*
X88851906Y-75988886D01*
X88867078Y-75996996D01*
X88996659Y-76103341D01*
X89103004Y-76232922D01*
X89103005Y-76232924D01*
X89182024Y-76380758D01*
X89230687Y-76541177D01*
X89247117Y-76708000D01*
X89230687Y-76874823D01*
X89182024Y-77035242D01*
X89111114Y-77167906D01*
X89103004Y-77183078D01*
X88996659Y-77312659D01*
X88867078Y-77419004D01*
X88867076Y-77419005D01*
X88719242Y-77498024D01*
X88558823Y-77546687D01*
X88433804Y-77559000D01*
X88350196Y-77559000D01*
X88225177Y-77546687D01*
X88064758Y-77498024D01*
X87916924Y-77419005D01*
X87916922Y-77419004D01*
X87787341Y-77312659D01*
X87680996Y-77183078D01*
X87672886Y-77167906D01*
X87601976Y-77035242D01*
X87553313Y-76874823D01*
X87536883Y-76708000D01*
X87553313Y-76541177D01*
X87601976Y-76380758D01*
X87680995Y-76232924D01*
X87680996Y-76232922D01*
X87787341Y-76103341D01*
X87916922Y-75996996D01*
X87932094Y-75988886D01*
X88064758Y-75917976D01*
X88225177Y-75869313D01*
X88350196Y-75857000D01*
X88433804Y-75857000D01*
X88558823Y-75869313D01*
X88558823Y-75869313D01*
G37*
G36*
X88558823Y-68249313D02*
G01*
X88719242Y-68297976D01*
X88851906Y-68368886D01*
X88867078Y-68376996D01*
X88996659Y-68483341D01*
X89103004Y-68612922D01*
X89103005Y-68612924D01*
X89182024Y-68760758D01*
X89230687Y-68921177D01*
X89247117Y-69088000D01*
X89230687Y-69254823D01*
X89182024Y-69415242D01*
X89121533Y-69528413D01*
X89103004Y-69563078D01*
X88996659Y-69692659D01*
X88867078Y-69799004D01*
X88867076Y-69799005D01*
X88719242Y-69878024D01*
X88558823Y-69926687D01*
X88433804Y-69939000D01*
X88350196Y-69939000D01*
X88225177Y-69926687D01*
X88064758Y-69878024D01*
X87916924Y-69799005D01*
X87916922Y-69799004D01*
X87787341Y-69692659D01*
X87680996Y-69563078D01*
X87662467Y-69528413D01*
X87601976Y-69415242D01*
X87553313Y-69254823D01*
X87536883Y-69088000D01*
X87553313Y-68921177D01*
X87601976Y-68760758D01*
X87680995Y-68612924D01*
X87680996Y-68612922D01*
X87787341Y-68483341D01*
X87916922Y-68376996D01*
X87932094Y-68368886D01*
X88064758Y-68297976D01*
X88225177Y-68249313D01*
X88350196Y-68237000D01*
X88433804Y-68237000D01*
X88558823Y-68249313D01*
X88558823Y-68249313D01*
G37*
G36*
X91098823Y-68249313D02*
G01*
X91259242Y-68297976D01*
X91391906Y-68368886D01*
X91407078Y-68376996D01*
X91536659Y-68483341D01*
X91643004Y-68612922D01*
X91643005Y-68612924D01*
X91722024Y-68760758D01*
X91770687Y-68921177D01*
X91787117Y-69088000D01*
X91770687Y-69254823D01*
X91722024Y-69415242D01*
X91661533Y-69528413D01*
X91643004Y-69563078D01*
X91536659Y-69692659D01*
X91407078Y-69799004D01*
X91407076Y-69799005D01*
X91259242Y-69878024D01*
X91098823Y-69926687D01*
X90973804Y-69939000D01*
X90890196Y-69939000D01*
X90765177Y-69926687D01*
X90604758Y-69878024D01*
X90456924Y-69799005D01*
X90456922Y-69799004D01*
X90327341Y-69692659D01*
X90220996Y-69563078D01*
X90202467Y-69528413D01*
X90141976Y-69415242D01*
X90093313Y-69254823D01*
X90076883Y-69088000D01*
X90093313Y-68921177D01*
X90141976Y-68760758D01*
X90220995Y-68612924D01*
X90220996Y-68612922D01*
X90327341Y-68483341D01*
X90456922Y-68376996D01*
X90472094Y-68368886D01*
X90604758Y-68297976D01*
X90765177Y-68249313D01*
X90890196Y-68237000D01*
X90973804Y-68237000D01*
X91098823Y-68249313D01*
X91098823Y-68249313D01*
G37*
G36*
X96863000Y-69939000D02*
G01*
X95161000Y-69939000D01*
X95161000Y-68237000D01*
X96863000Y-68237000D01*
X96863000Y-69939000D01*
X96863000Y-69939000D01*
G37*
G36*
X93638823Y-68249313D02*
G01*
X93799242Y-68297976D01*
X93931906Y-68368886D01*
X93947078Y-68376996D01*
X94076659Y-68483341D01*
X94183004Y-68612922D01*
X94183005Y-68612924D01*
X94262024Y-68760758D01*
X94310687Y-68921177D01*
X94327117Y-69088000D01*
X94310687Y-69254823D01*
X94262024Y-69415242D01*
X94201533Y-69528413D01*
X94183004Y-69563078D01*
X94076659Y-69692659D01*
X93947078Y-69799004D01*
X93947076Y-69799005D01*
X93799242Y-69878024D01*
X93638823Y-69926687D01*
X93513804Y-69939000D01*
X93430196Y-69939000D01*
X93305177Y-69926687D01*
X93144758Y-69878024D01*
X92996924Y-69799005D01*
X92996922Y-69799004D01*
X92867341Y-69692659D01*
X92760996Y-69563078D01*
X92742467Y-69528413D01*
X92681976Y-69415242D01*
X92633313Y-69254823D01*
X92616883Y-69088000D01*
X92633313Y-68921177D01*
X92681976Y-68760758D01*
X92760995Y-68612924D01*
X92760996Y-68612922D01*
X92867341Y-68483341D01*
X92996922Y-68376996D01*
X93012094Y-68368886D01*
X93144758Y-68297976D01*
X93305177Y-68249313D01*
X93430196Y-68237000D01*
X93513804Y-68237000D01*
X93638823Y-68249313D01*
X93638823Y-68249313D01*
G37*
G36*
X78978205Y-67382461D02*
G01*
X79096153Y-67405922D01*
X79188194Y-67444047D01*
X79318359Y-67497963D01*
X79518342Y-67631587D01*
X79688413Y-67801658D01*
X79822037Y-68001641D01*
X79875953Y-68131806D01*
X79914078Y-68223847D01*
X79928823Y-68297975D01*
X79961000Y-68459741D01*
X79961000Y-68700259D01*
X79914078Y-68936152D01*
X79822037Y-69158359D01*
X79688413Y-69358342D01*
X79518342Y-69528413D01*
X79318359Y-69662037D01*
X79188194Y-69715953D01*
X79096153Y-69754078D01*
X78860259Y-69801000D01*
X78619741Y-69801000D01*
X78383847Y-69754078D01*
X78291806Y-69715953D01*
X78161641Y-69662037D01*
X77961658Y-69528413D01*
X77791587Y-69358342D01*
X77657963Y-69158359D01*
X77565922Y-68936152D01*
X77519000Y-68700259D01*
X77519000Y-68459741D01*
X77551177Y-68297975D01*
X77565922Y-68223847D01*
X77604047Y-68131806D01*
X77657963Y-68001641D01*
X77791587Y-67801658D01*
X77961658Y-67631587D01*
X78161641Y-67497963D01*
X78291806Y-67444047D01*
X78383847Y-67405922D01*
X78501795Y-67382461D01*
X78619741Y-67359000D01*
X78860259Y-67359000D01*
X78978205Y-67382461D01*
X78978205Y-67382461D01*
G37*
G36*
X68978205Y-67382461D02*
G01*
X69096153Y-67405922D01*
X69188194Y-67444047D01*
X69318359Y-67497963D01*
X69518342Y-67631587D01*
X69688413Y-67801658D01*
X69822037Y-68001641D01*
X69875953Y-68131806D01*
X69914078Y-68223847D01*
X69928823Y-68297975D01*
X69961000Y-68459741D01*
X69961000Y-68700259D01*
X69914078Y-68936152D01*
X69822037Y-69158359D01*
X69688413Y-69358342D01*
X69518342Y-69528413D01*
X69318359Y-69662037D01*
X69188194Y-69715953D01*
X69096153Y-69754078D01*
X68860259Y-69801000D01*
X68619741Y-69801000D01*
X68383847Y-69754078D01*
X68291806Y-69715953D01*
X68161641Y-69662037D01*
X67961658Y-69528413D01*
X67791587Y-69358342D01*
X67657963Y-69158359D01*
X67565922Y-68936152D01*
X67519000Y-68700259D01*
X67519000Y-68459741D01*
X67551177Y-68297975D01*
X67565922Y-68223847D01*
X67604047Y-68131806D01*
X67657963Y-68001641D01*
X67791587Y-67801658D01*
X67961658Y-67631587D01*
X68161641Y-67497963D01*
X68291806Y-67444047D01*
X68383847Y-67405922D01*
X68501795Y-67382461D01*
X68619741Y-67359000D01*
X68860259Y-67359000D01*
X68978205Y-67382461D01*
X68978205Y-67382461D01*
G37*
G36*
X73978205Y-67382461D02*
G01*
X74096153Y-67405922D01*
X74188194Y-67444047D01*
X74318359Y-67497963D01*
X74518342Y-67631587D01*
X74688413Y-67801658D01*
X74822037Y-68001641D01*
X74875953Y-68131806D01*
X74914078Y-68223847D01*
X74928823Y-68297975D01*
X74961000Y-68459741D01*
X74961000Y-68700259D01*
X74914078Y-68936152D01*
X74822037Y-69158359D01*
X74688413Y-69358342D01*
X74518342Y-69528413D01*
X74318359Y-69662037D01*
X74188194Y-69715953D01*
X74096153Y-69754078D01*
X73860259Y-69801000D01*
X73619741Y-69801000D01*
X73383847Y-69754078D01*
X73291806Y-69715953D01*
X73161641Y-69662037D01*
X72961658Y-69528413D01*
X72791587Y-69358342D01*
X72657963Y-69158359D01*
X72565922Y-68936152D01*
X72519000Y-68700259D01*
X72519000Y-68459741D01*
X72551177Y-68297975D01*
X72565922Y-68223847D01*
X72604047Y-68131806D01*
X72657963Y-68001641D01*
X72791587Y-67801658D01*
X72961658Y-67631587D01*
X73161641Y-67497963D01*
X73291806Y-67444047D01*
X73383847Y-67405922D01*
X73501795Y-67382461D01*
X73619741Y-67359000D01*
X73860259Y-67359000D01*
X73978205Y-67382461D01*
X73978205Y-67382461D01*
G37*
G36*
X93182000Y-60416000D02*
G01*
X91730000Y-60416000D01*
X91730000Y-58964000D01*
X93182000Y-58964000D01*
X93182000Y-60416000D01*
X93182000Y-60416000D01*
G37*
G36*
X90667766Y-58991899D02*
G01*
X90799888Y-59046626D01*
X90799890Y-59046627D01*
X90918798Y-59126079D01*
X91019921Y-59227202D01*
X91019922Y-59227204D01*
X91099374Y-59346112D01*
X91154101Y-59478234D01*
X91182000Y-59618494D01*
X91182000Y-59761506D01*
X91154101Y-59901766D01*
X91099374Y-60033888D01*
X91099373Y-60033890D01*
X91019921Y-60152798D01*
X90918798Y-60253921D01*
X90799890Y-60333373D01*
X90799889Y-60333374D01*
X90799888Y-60333374D01*
X90667766Y-60388101D01*
X90527506Y-60416000D01*
X90384494Y-60416000D01*
X90244234Y-60388101D01*
X90112112Y-60333374D01*
X90112111Y-60333374D01*
X90112110Y-60333373D01*
X89993202Y-60253921D01*
X89892079Y-60152798D01*
X89812627Y-60033890D01*
X89812626Y-60033888D01*
X89757899Y-59901766D01*
X89730000Y-59761506D01*
X89730000Y-59618494D01*
X89757899Y-59478234D01*
X89812626Y-59346112D01*
X89892078Y-59227204D01*
X89892079Y-59227202D01*
X89993202Y-59126079D01*
X90112110Y-59046627D01*
X90112112Y-59046626D01*
X90244234Y-58991899D01*
X90384494Y-58964000D01*
X90527506Y-58964000D01*
X90667766Y-58991899D01*
X90667766Y-58991899D01*
G37*
G36*
X92667766Y-56991899D02*
G01*
X92799888Y-57046626D01*
X92799890Y-57046627D01*
X92918798Y-57126079D01*
X93019921Y-57227202D01*
X93019922Y-57227204D01*
X93099374Y-57346112D01*
X93154101Y-57478234D01*
X93182000Y-57618494D01*
X93182000Y-57761506D01*
X93154101Y-57901766D01*
X93099374Y-58033888D01*
X93099373Y-58033890D01*
X93019921Y-58152798D01*
X92918798Y-58253921D01*
X92799890Y-58333373D01*
X92799889Y-58333374D01*
X92799888Y-58333374D01*
X92667766Y-58388101D01*
X92527506Y-58416000D01*
X92384494Y-58416000D01*
X92244234Y-58388101D01*
X92112112Y-58333374D01*
X92112111Y-58333374D01*
X92112110Y-58333373D01*
X91993202Y-58253921D01*
X91892079Y-58152798D01*
X91812627Y-58033890D01*
X91812626Y-58033888D01*
X91757899Y-57901766D01*
X91730000Y-57761506D01*
X91730000Y-57618494D01*
X91757899Y-57478234D01*
X91812626Y-57346112D01*
X91892078Y-57227204D01*
X91892079Y-57227202D01*
X91993202Y-57126079D01*
X92112110Y-57046627D01*
X92112112Y-57046626D01*
X92244234Y-56991899D01*
X92384494Y-56964000D01*
X92527506Y-56964000D01*
X92667766Y-56991899D01*
X92667766Y-56991899D01*
G37*
G36*
X90667766Y-56991899D02*
G01*
X90799888Y-57046626D01*
X90799890Y-57046627D01*
X90918798Y-57126079D01*
X91019921Y-57227202D01*
X91019922Y-57227204D01*
X91099374Y-57346112D01*
X91154101Y-57478234D01*
X91182000Y-57618494D01*
X91182000Y-57761506D01*
X91154101Y-57901766D01*
X91099374Y-58033888D01*
X91099373Y-58033890D01*
X91019921Y-58152798D01*
X90918798Y-58253921D01*
X90799890Y-58333373D01*
X90799889Y-58333374D01*
X90799888Y-58333374D01*
X90667766Y-58388101D01*
X90527506Y-58416000D01*
X90384494Y-58416000D01*
X90244234Y-58388101D01*
X90112112Y-58333374D01*
X90112111Y-58333374D01*
X90112110Y-58333373D01*
X89993202Y-58253921D01*
X89892079Y-58152798D01*
X89812627Y-58033890D01*
X89812626Y-58033888D01*
X89757899Y-57901766D01*
X89730000Y-57761506D01*
X89730000Y-57618494D01*
X89757899Y-57478234D01*
X89812626Y-57346112D01*
X89892078Y-57227204D01*
X89892079Y-57227202D01*
X89993202Y-57126079D01*
X90112110Y-57046627D01*
X90112112Y-57046626D01*
X90244234Y-56991899D01*
X90384494Y-56964000D01*
X90527506Y-56964000D01*
X90667766Y-56991899D01*
X90667766Y-56991899D01*
G37*
G36*
X90667766Y-54991899D02*
G01*
X90799888Y-55046626D01*
X90799890Y-55046627D01*
X90918798Y-55126079D01*
X91019921Y-55227202D01*
X91019922Y-55227204D01*
X91099374Y-55346112D01*
X91154101Y-55478234D01*
X91182000Y-55618494D01*
X91182000Y-55761506D01*
X91154101Y-55901766D01*
X91099374Y-56033888D01*
X91099373Y-56033890D01*
X91019921Y-56152798D01*
X90918798Y-56253921D01*
X90799890Y-56333373D01*
X90799889Y-56333374D01*
X90799888Y-56333374D01*
X90667766Y-56388101D01*
X90527506Y-56416000D01*
X90384494Y-56416000D01*
X90244234Y-56388101D01*
X90112112Y-56333374D01*
X90112111Y-56333374D01*
X90112110Y-56333373D01*
X89993202Y-56253921D01*
X89892079Y-56152798D01*
X89812627Y-56033890D01*
X89812626Y-56033888D01*
X89757899Y-55901766D01*
X89730000Y-55761506D01*
X89730000Y-55618494D01*
X89757899Y-55478234D01*
X89812626Y-55346112D01*
X89892078Y-55227204D01*
X89892079Y-55227202D01*
X89993202Y-55126079D01*
X90112110Y-55046627D01*
X90112112Y-55046626D01*
X90244234Y-54991899D01*
X90384494Y-54964000D01*
X90527506Y-54964000D01*
X90667766Y-54991899D01*
X90667766Y-54991899D01*
G37*
G36*
X92667766Y-54991899D02*
G01*
X92799888Y-55046626D01*
X92799890Y-55046627D01*
X92918798Y-55126079D01*
X93019921Y-55227202D01*
X93019922Y-55227204D01*
X93099374Y-55346112D01*
X93154101Y-55478234D01*
X93182000Y-55618494D01*
X93182000Y-55761506D01*
X93154101Y-55901766D01*
X93099374Y-56033888D01*
X93099373Y-56033890D01*
X93019921Y-56152798D01*
X92918798Y-56253921D01*
X92799890Y-56333373D01*
X92799889Y-56333374D01*
X92799888Y-56333374D01*
X92667766Y-56388101D01*
X92527506Y-56416000D01*
X92384494Y-56416000D01*
X92244234Y-56388101D01*
X92112112Y-56333374D01*
X92112111Y-56333374D01*
X92112110Y-56333373D01*
X91993202Y-56253921D01*
X91892079Y-56152798D01*
X91812627Y-56033890D01*
X91812626Y-56033888D01*
X91757899Y-55901766D01*
X91730000Y-55761506D01*
X91730000Y-55618494D01*
X91757899Y-55478234D01*
X91812626Y-55346112D01*
X91892078Y-55227204D01*
X91892079Y-55227202D01*
X91993202Y-55126079D01*
X92112110Y-55046627D01*
X92112112Y-55046626D01*
X92244234Y-54991899D01*
X92384494Y-54964000D01*
X92527506Y-54964000D01*
X92667766Y-54991899D01*
X92667766Y-54991899D01*
G37*
G36*
X90667766Y-52991899D02*
G01*
X90799888Y-53046626D01*
X90799890Y-53046627D01*
X90918798Y-53126079D01*
X91019921Y-53227202D01*
X91019922Y-53227204D01*
X91099374Y-53346112D01*
X91154101Y-53478234D01*
X91182000Y-53618494D01*
X91182000Y-53761506D01*
X91154101Y-53901766D01*
X91099374Y-54033888D01*
X91099373Y-54033890D01*
X91019921Y-54152798D01*
X90918798Y-54253921D01*
X90799890Y-54333373D01*
X90799889Y-54333374D01*
X90799888Y-54333374D01*
X90667766Y-54388101D01*
X90527506Y-54416000D01*
X90384494Y-54416000D01*
X90244234Y-54388101D01*
X90112112Y-54333374D01*
X90112111Y-54333374D01*
X90112110Y-54333373D01*
X89993202Y-54253921D01*
X89892079Y-54152798D01*
X89812627Y-54033890D01*
X89812626Y-54033888D01*
X89757899Y-53901766D01*
X89730000Y-53761506D01*
X89730000Y-53618494D01*
X89757899Y-53478234D01*
X89812626Y-53346112D01*
X89892078Y-53227204D01*
X89892079Y-53227202D01*
X89993202Y-53126079D01*
X90112110Y-53046627D01*
X90112112Y-53046626D01*
X90244234Y-52991899D01*
X90384494Y-52964000D01*
X90527506Y-52964000D01*
X90667766Y-52991899D01*
X90667766Y-52991899D01*
G37*
G36*
X92667766Y-52991899D02*
G01*
X92799888Y-53046626D01*
X92799890Y-53046627D01*
X92918798Y-53126079D01*
X93019921Y-53227202D01*
X93019922Y-53227204D01*
X93099374Y-53346112D01*
X93154101Y-53478234D01*
X93182000Y-53618494D01*
X93182000Y-53761506D01*
X93154101Y-53901766D01*
X93099374Y-54033888D01*
X93099373Y-54033890D01*
X93019921Y-54152798D01*
X92918798Y-54253921D01*
X92799890Y-54333373D01*
X92799889Y-54333374D01*
X92799888Y-54333374D01*
X92667766Y-54388101D01*
X92527506Y-54416000D01*
X92384494Y-54416000D01*
X92244234Y-54388101D01*
X92112112Y-54333374D01*
X92112111Y-54333374D01*
X92112110Y-54333373D01*
X91993202Y-54253921D01*
X91892079Y-54152798D01*
X91812627Y-54033890D01*
X91812626Y-54033888D01*
X91757899Y-53901766D01*
X91730000Y-53761506D01*
X91730000Y-53618494D01*
X91757899Y-53478234D01*
X91812626Y-53346112D01*
X91892078Y-53227204D01*
X91892079Y-53227202D01*
X91993202Y-53126079D01*
X92112110Y-53046627D01*
X92112112Y-53046626D01*
X92244234Y-52991899D01*
X92384494Y-52964000D01*
X92527506Y-52964000D01*
X92667766Y-52991899D01*
X92667766Y-52991899D01*
G37*
G36*
X90667766Y-50991899D02*
G01*
X90799888Y-51046626D01*
X90799890Y-51046627D01*
X90918798Y-51126079D01*
X91019921Y-51227202D01*
X91019922Y-51227204D01*
X91099374Y-51346112D01*
X91154101Y-51478234D01*
X91182000Y-51618494D01*
X91182000Y-51761506D01*
X91154101Y-51901766D01*
X91099374Y-52033888D01*
X91099373Y-52033890D01*
X91019921Y-52152798D01*
X90918798Y-52253921D01*
X90799890Y-52333373D01*
X90799889Y-52333374D01*
X90799888Y-52333374D01*
X90667766Y-52388101D01*
X90527506Y-52416000D01*
X90384494Y-52416000D01*
X90244234Y-52388101D01*
X90112112Y-52333374D01*
X90112111Y-52333374D01*
X90112110Y-52333373D01*
X89993202Y-52253921D01*
X89892079Y-52152798D01*
X89812627Y-52033890D01*
X89812626Y-52033888D01*
X89757899Y-51901766D01*
X89730000Y-51761506D01*
X89730000Y-51618494D01*
X89757899Y-51478234D01*
X89812626Y-51346112D01*
X89892078Y-51227204D01*
X89892079Y-51227202D01*
X89993202Y-51126079D01*
X90112110Y-51046627D01*
X90112112Y-51046626D01*
X90244234Y-50991899D01*
X90384494Y-50964000D01*
X90527506Y-50964000D01*
X90667766Y-50991899D01*
X90667766Y-50991899D01*
G37*
G36*
X92667766Y-50991899D02*
G01*
X92799888Y-51046626D01*
X92799890Y-51046627D01*
X92918798Y-51126079D01*
X93019921Y-51227202D01*
X93019922Y-51227204D01*
X93099374Y-51346112D01*
X93154101Y-51478234D01*
X93182000Y-51618494D01*
X93182000Y-51761506D01*
X93154101Y-51901766D01*
X93099374Y-52033888D01*
X93099373Y-52033890D01*
X93019921Y-52152798D01*
X92918798Y-52253921D01*
X92799890Y-52333373D01*
X92799889Y-52333374D01*
X92799888Y-52333374D01*
X92667766Y-52388101D01*
X92527506Y-52416000D01*
X92384494Y-52416000D01*
X92244234Y-52388101D01*
X92112112Y-52333374D01*
X92112111Y-52333374D01*
X92112110Y-52333373D01*
X91993202Y-52253921D01*
X91892079Y-52152798D01*
X91812627Y-52033890D01*
X91812626Y-52033888D01*
X91757899Y-51901766D01*
X91730000Y-51761506D01*
X91730000Y-51618494D01*
X91757899Y-51478234D01*
X91812626Y-51346112D01*
X91892078Y-51227204D01*
X91892079Y-51227202D01*
X91993202Y-51126079D01*
X92112110Y-51046627D01*
X92112112Y-51046626D01*
X92244234Y-50991899D01*
X92384494Y-50964000D01*
X92527506Y-50964000D01*
X92667766Y-50991899D01*
X92667766Y-50991899D01*
G37*
M02*
